<svg width="664" height="665" xmlns="http://www.w3.org/2000/svg">
 <mask height="665" width="592" y="0" x="-13" maskUnits="userSpaceOnUse" id="mask0_415_11747">
  <rect id="svg_1" fill="url(#paint1_linear_415_11747)" height="664.938" width="591.785" x="-12.7969"/>
 </mask>
 <defs>
  <filter color-interpolation-filters="sRGB" filterUnits="userSpaceOnUse" height="144.429" width="144.429" y="537.389" x="50.0398" id="filter0_b_415_11747">
   <feGaussianBlur stdDeviation="15.9435"/>
  </filter>
  <filter color-interpolation-filters="sRGB" filterUnits="userSpaceOnUse" height="143.492" width="143.491" y="33.4182" x="262.587" id="filter1_b_415_11747">
   <feGaussianBlur stdDeviation="15.9435"/>
  </filter>
  <filter color-interpolation-filters="sRGB" filterUnits="userSpaceOnUse" height="144.429" width="144.429" y="-7.15849" x="98.2136" id="filter2_b_415_11747">
   <feGaussianBlur stdDeviation="15.9435"/>
  </filter>
  <filter color-interpolation-filters="sRGB" filterUnits="userSpaceOnUse" height="25.3818" width="29.0839" y="52.4409" x="155.816" id="filter3_b_415_11747">
   <feGaussianBlur stdDeviation="1.56517"/>
  </filter>
  <filter color-interpolation-filters="sRGB" filterUnits="userSpaceOnUse" height="145.006" width="145.005" y="300.273" x="382.2" id="filter4_b_415_11747">
   <feGaussianBlur stdDeviation="15.9435"/>
  </filter>
  <filter color-interpolation-filters="sRGB" filterUnits="userSpaceOnUse" height="144.429" width="144.429" y="133.175" x="177.588" id="filter5_b_415_11747">
   <feGaussianBlur stdDeviation="15.9435"/>
  </filter>
  <filter color-interpolation-filters="sRGB" filterUnits="userSpaceOnUse" height="144.429" width="144.429" y="183.97" x="327.796" id="filter6_b_415_11747">
   <feGaussianBlur stdDeviation="15.9435"/>
  </filter>
  <filter color-interpolation-filters="sRGB" filterUnits="userSpaceOnUse" height="143.492" width="143.491" y="271.039" x="219.791" id="filter7_b_415_11747">
   <feGaussianBlur stdDeviation="15.9435"/>
  </filter>
  <filter color-interpolation-filters="sRGB" filterUnits="userSpaceOnUse" height="144.429" width="144.429" y="407.966" x="249.802" id="filter8_b_415_11747">
   <feGaussianBlur stdDeviation="15.9435"/>
  </filter>
  <filter color-interpolation-filters="sRGB" filterUnits="userSpaceOnUse" height="144.429" width="144.429" y="383.582" x="96.9314" id="filter9_b_415_11747">
   <feGaussianBlur stdDeviation="15.9435"/>
  </filter>
  <filter color-interpolation-filters="sRGB" filterUnits="userSpaceOnUse" height="144.429" width="144.429" y="221.333" x="71.6101" id="filter10_b_415_11747">
   <feGaussianBlur stdDeviation="15.9435"/>
  </filter>
  <filter color-interpolation-filters="sRGB" filterUnits="userSpaceOnUse" height="144.429" width="144.429" y="527.073" x="290.131" id="filter11_b_415_11747">
   <feGaussianBlur stdDeviation="15.9435"/>
  </filter>
  <clipPath id="clip0_415_11747">
   <rect id="svg_2" x="95.055702" y="582.406982" fill="white" height="54.3955" width="54.3955"/>
  </clipPath>
  <clipPath id="clip1_415_11747">
   <rect id="svg_3" x="370.054993" y="226.115997" transform="rotate(0.10991399735212326 370.05499267579955,226.11599731444895) " fill="white" height="60.0226" width="60.0226"/>
  </clipPath>
  <clipPath id="clip2_415_11747">
   <rect id="svg_4" x="294.817993" y="452.981995" fill="white" height="54.5493" width="54.5493"/>
  </clipPath>
  <radialGradient gradientTransform="translate(332 332.938) rotate(90) scale(349.759)" gradientUnits="userSpaceOnUse" r="1" cy="0" cx="0" id="paint0_radial_415_11747">
   <stop stop-color="white"/>
   <stop stop-opacity="0" stop-color="white" offset="1"/>
  </radialGradient>
  <linearGradient y2="1.052185" x2="0.635499" y1="-0.122708" x1="0.26149" id="paint1_linear_415_11747">
   <stop offset="0.416946"/>
   <stop stop-opacity="0.02" offset="0.880782"/>
  </linearGradient>
  <linearGradient y2="0.848575" x2="0.498346" y1="0.076521" x1="-0.008283" id="paint2_linear_415_11747">
   <stop stop-opacity="0" stop-color="white"/>
   <stop stop-color="white" offset="1"/>
  </linearGradient>
  <linearGradient y2="0.877677" x2="0.661017" y1="0.022428" x1="0.433765" id="paint3_linear_415_11747">
   <stop stop-color="white" offset="0.0001"/>
  </linearGradient>
 </defs>
 <g>
  <title>background</title>
  <rect fill="none" id="canvas_background" height="667" width="666" y="-1" x="-1"/>
 </g>
 <g>
  <title>Layer 1</title>
  <path id="svg_5" fill="url(#paint0_radial_415_11747)" d="m663.459,504.085l0,-170.208l0.54,0l0,-1.879l-0.54,0l0,-170.207c-0.01,-41.742 -16.254,-81.8436 -45.296,-111.8252l0,-3.0883l45.296,0l0,-1.8917l-43.984,0l42.234,-42.46502l-1.287,-1.28682l-42.221,42.46504l0,-41.5514l-1.878,0l0,42.8382l-3.192,0c-29.55,-28.2475 -68.848,-44.02292 -109.727,-44.04781l-343.362,0c-40.862,0.03813 -80.1388,15.81251 -109.6759,44.04781l-3.2041,0l0,-42.8382l-1.8659,0l0,41.5128l-42.2206,-42.46505l-1.28682,1.28682l42.22052,42.46503l-41.33261,0l0,1.8788l42.61951,0l0,3.1398c-29.0461,29.9793 -45.2903,70.0822 -45.2961,111.8252l0,342.294c0.0058,41.742 16.25,81.845 45.2961,111.824l0,3.14l-42.61951,0l0,1.879l41.29401,0l-42.22052,42.465l1.28682,1.287l42.2206,-42.465l0,41.513l1.8659,0l0,-42.839l3.2041,0c29.5467,28.245 68.8395,44.02 109.7145,44.048l343.362,0c40.866,-0.035 80.148,-15.809 109.689,-44.048l3.191,0l0,42.839l1.879,0l0,-41.513l42.22,42.465l1.287,-1.287l-42.233,-42.465l44.562,0l0,-1.879l-45.836,0l0,-3.14c29.035,-29.986 45.278,-70.084 45.296,-111.824zm-1.879,0c-0.003,40.577 -15.539,79.613 -43.417,109.096l0,-161.277l42.748,0l0,-1.866l-42.748,0l0,-116.161l43.417,0l0,170.208zm-212.055,-54.047l-1.287,-1.287c2.136,-2.17 4.208,-4.401 6.215,-6.691l0,7.978l-4.928,0zm4.928,1.879l0,3.076l-3.062,-3.076l3.062,0zm-244.38,-1.879l0,-6.756c1.673,1.866 3.398,3.681 5.148,5.469l-1.287,1.287l-3.861,0zm1.995,1.879l-1.995,1.982l0,-1.995l1.995,0.013zm1.866,-236.08l1.287,1.287c-1.75,1.788 -3.475,3.616 -5.148,5.469l0,-6.756l3.861,0zm-3.861,-1.879l0,-1.981l1.995,1.994l-1.995,-0.013zm244.38,1.879l0,7.978c-2.007,-2.29 -4.079,-4.521 -6.215,-6.691l1.287,-1.287l4.928,0zm-3.062,-1.879l3.062,-3.075l0,3.075l-3.062,0zm3.062,118.027l-4.401,0c-0.195,-30.873 -12.386,-60.461 -33.997,-82.511l30.883,-31.012c2.574,2.634 5.088,5.366 7.541,8.197l-0.026,105.326zm1.866,-103.1c24.002,29.009 37.192,65.449 37.318,103.1l-37.318,0l0,-103.1zm-41.59,21.876c21.272,21.686 33.271,50.797 33.458,81.173l-114.206,0l80.748,-81.173zm-82.06,79.783l0,-114.707c30.272,0.211 59.256,12.278 80.735,33.612l-80.735,81.095zm-1.879,0l-80.748,-81.185c21.503,-21.295 50.486,-33.327 80.748,-33.522l0,114.707zm-1.287,1.287l-114.231,0c0.194,-30.375 12.192,-59.483 33.457,-81.173l80.774,81.173zm0,1.879l-80.748,81.172c-21.265,-21.689 -33.263,-50.798 -33.457,-81.172l114.205,0zm1.287,1.287l0,115.041c-30.278,-0.212 -59.267,-12.284 -80.748,-33.624l80.748,-81.417zm1.879,0l80.735,81.172c-21.435,21.432 -50.425,33.594 -80.735,33.869l0,-115.041zm1.287,-1.287l114.192,0c-0.187,30.376 -12.186,59.487 -33.457,81.172l-80.735,-81.172zm111.631,-116.586l-30.883,31.025c-16.952,-16.817 -38.614,-28.086 -62.115,-32.312l91.686,0l1.312,1.287zm-112.918,-3.166l0,-43.842c40.782,0.2 79.967,15.874 109.637,43.855l-109.637,-0.013zm-1.879,0l-109.637,0c29.664,-27.989 68.853,-43.664 109.637,-43.855l0,43.855zm-19.933,1.879c-23.508,4.227 -45.179,15.495 -62.14,32.312l-30.884,-31.025l1.287,-1.287l91.737,0zm-94.311,2.574l30.884,31.012c-21.621,22.043 -33.815,51.635 -33.998,82.511l-3.333,0l0,-106.497c2.072,-2.381 4.221,-4.71 6.447,-6.962l0,-0.064zm-8.338,113.523l-38.438,0c0.144,-38.228 13.753,-75.183 38.438,-104.374l0,104.374zm0,1.879l0,104.374c-24.685,-29.191 -38.294,-66.146 -38.438,-104.374l38.438,0zm1.865,0l3.333,0c0.181,30.872 12.375,60.461 33.998,82.498l-30.884,31.025c-2.226,-2.252 -4.375,-4.581 -6.434,-6.962l-0.013,-106.561zm7.799,114.938l30.883,-31.025c16.952,16.811 38.607,28.078 62.102,32.312l-91.673,0l-1.312,-1.287zm112.918,3.166l0,43.855c-40.784,-0.191 -79.973,-15.866 -109.637,-43.855l109.637,0zm1.879,0l109.637,0c-29.67,27.981 -68.855,43.655 -109.637,43.855l0,-43.855zm19.92,-1.879c23.51,-4.221 45.182,-15.49 62.14,-32.312l30.884,31.025l-1.287,1.287l-91.737,0zm94.324,-2.573l-30.884,-31.026c21.614,-22.042 33.806,-51.627 33.998,-82.498l4.401,0l0,105.327c-2.402,2.779 -4.907,5.511 -7.515,8.197zm9.406,-113.524l37.318,0c-0.126,37.651 -13.316,74.091 -37.318,103.1l0,-103.1zm39.235,-1.878c-0.143,-38.862 -14.043,-76.418 -39.235,-106.009l0,-10.217l98.957,0c18.627,35.888 28.392,75.714 28.477,116.148l-88.199,0.078zm-39.235,-118.028l0,-4.967l54.278,-54.548c17.383,17.606 32.101,37.656 43.688,59.515l-97.966,0zm0,-7.618l0,-93.757c19.358,11.092 37.163,24.695 52.953,40.457l-52.953,53.3zm-1.866,1.879l-5.7,5.739l-3.719,0c-30.153,-29.178 -70.407,-45.589 -112.365,-45.81l0,-88.6366c42.663,0.0937 84.591,11.1162 121.784,32.0166l0,96.691zm-123.663,-40.071c-41.948,0.198 -82.201,16.581 -112.365,45.733l-3.719,0l-4.633,-4.658l0,-98.313c36.935,-20.512 78.469,-31.3194 120.717,-31.4114l0,88.6494zm-122.582,39.209l-54.047,-54.317c16.091,-16.05 34.27,-29.862 54.047,-41.062l0,95.379zm0,2.664l0,3.86l-99.086,0c11.583,-21.862 26.302,-41.913 43.688,-59.515l55.398,55.655zm0,5.752l0,8.879c-25.858,29.771 -40.165,67.837 -40.317,107.269l-88.1854,0c0.0834,-40.438 9.8481,-80.269 28.4774,-116.161l100.025,0.013zm-40.317,118.027c0.152,39.432 14.459,77.499 40.317,107.269l0,8.892l-100.025,0c-18.6273,-35.888 -28.3919,-75.714 -28.4774,-116.148l88.1854,-0.013zm40.317,118.027l0,3.861l-55.334,55.629c-17.386,-17.603 -32.104,-37.653 -43.687,-59.516l99.021,0.026zm0,6.537l0,95.379c-19.777,-11.2 -37.956,-25.012 -54.047,-41.062l54.047,-54.317zm1.865,-1.879l4.633,-4.658l3.719,0c30.162,29.157 70.415,45.545 112.365,45.747l0,88.662c-42.248,-0.103 -83.781,-10.915 -120.717,-31.425l0,-98.326zm122.596,41.089c41.948,-0.201 82.2,-16.584 112.365,-45.734l3.719,0l5.7,5.739l0,96.615c-37.194,20.898 -79.121,31.924 -121.784,32.029l0,-88.649zm123.65,-38.116l52.953,53.236c-15.796,15.755 -33.6,29.358 -52.953,40.457l0,-93.693zm0,-2.651l0,-4.967l97.966,0c-11.587,21.86 -26.305,41.91 -43.688,59.515l-54.278,-54.548zm0,-6.846l0,-10.14c25.192,-29.591 39.092,-67.146 39.235,-106.008l88.199,0c-0.085,40.434 -9.85,80.26 -28.477,116.148l-98.957,0zm129.3,-116.148l30.665,0l0,116.148l-58.898,0c18.476,-35.938 28.153,-75.751 28.233,-116.161l0,0.013zm0,-1.879c-0.078,-40.414 -9.755,-80.231 -28.233,-116.174l58.898,0l0,116.148l-30.665,0.026zm-29.224,-118.027c-11.744,-22.365 -26.731,-42.871 -44.472,-60.854l103.177,-103.6789l0.09,0.0772c0.386,0.3989 0.772,0.8236 1.158,1.2868l0,163.1559l-59.953,0.013zm57.29,-165.8326l-103.088,103.6406c-16.162,-16.132 -34.418,-30.021 -54.278,-41.294l0,-63.6334l156.027,0l1.339,1.2868zm-159.232,61.3046c-37.251,-20.7263 -79.155,-31.6539 -121.784,-31.7592l0,-30.8837l121.784,0l0,62.6429zm-121.784,-64.4702l0,-42.16906l121.784,0l0,42.16906l-121.784,0zm-1.879,0l-120.717,0l0,-42.16906l120.717,0l0,42.16906zm0,1.8788l0,30.8837c-42.214,0.0988 -83.726,10.812 -120.717,31.1537l0,-62.0374l120.717,0zm-122.582,63.0544c-20.27,11.371 -38.888,25.464 -55.334,41.886l-103.0869,-103.6407l1.2868,-1.2868l157.1341,0l0,63.0415zm-159.875,-60.3907l0.0772,-0.0772l103.1258,103.6659c-17.749,17.979 -32.74,38.486 -44.485,60.854l-59.889,0l0,-163.2073c0.4504,-0.4118 0.7721,-0.8365 1.171,-1.2354zm57.74,166.3087c-18.4743,35.935 -28.1507,75.743 -28.2332,116.148l-30.6778,0l0,-116.148l58.911,0zm-28.2332,118.027c0.0785,40.414 9.755,80.232 28.2332,116.174l-58.911,0l0,-116.161l30.6778,-0.013zm29.2112,118.027c11.745,22.368 26.736,42.875 44.485,60.854l-103.1258,103.679l-0.0772,-0.077c-0.3989,-0.399 -0.7721,-0.824 -1.171,-1.287l0,-163.156l59.889,-0.013zm-57.2768,165.833l103.0868,-103.641c16.45,16.423 35.066,30.519 55.334,41.899l0,63.054l-157.0825,0l-1.3383,-1.312zm160.2988,-60.699c36.991,20.341 78.503,31.055 120.717,31.153l0,30.884l-120.717,0l0,-62.037zm120.717,63.864l0,42.169l-120.717,0l0,-42.169l120.717,0zm1.879,0l121.784,0l0,42.169l-121.784,0l0,-42.169zm0,-1.878l0,-30.884c42.629,-0.105 84.533,-11.033 121.784,-31.759l0,62.591l-121.784,0.052zm123.65,-63.634c19.86,-11.273 38.116,-25.161 54.278,-41.294l103.088,103.641l-1.287,1.287l-156.079,0l0,-63.634zm158.781,60.97l-0.09,0.077l-103.113,-103.666c17.742,-17.983 32.728,-38.489 44.473,-60.854l59.888,0l0,163.208l-1.158,1.235zm46.48,-454.556l0,170.207l-43.417,0l0,-116.161l42.748,0l0,-1.879l-42.748,0l0,-161.2255c27.869,29.4736 43.404,68.4945 43.417,109.0585zm-51.19,-116.8438l-154.071,0l0,-42.13046l47.085,0c39.71,0.02933 77.936,15.09616 106.986,42.16906l0,-0.0386zm-450.387,-42.16906l48.205,0l0,42.16906l-155.1395,0c29.0526,-27.057 67.2725,-42.10965 106.9735,-42.13046l-0.039,-0.0386zm-158.13711,501.30686l0,-342.294c0.00802,-40.579 15.54791,-79.6151 43.43021,-109.0971l0,161.2381l-42.72246,0l0,1.905l42.72246,0l0,116.148l-42.87688,0l0,1.879l42.87688,0l0,116.174l-42.72246,0l0,1.879l42.72246,0l0,161.239c-27.8762,-29.476 -43.41561,-68.502 -43.43021,-109.071zm51.20261,116.843l155.1395,0l0,42.169l-48.166,0c-39.711,-0.042 -77.9328,-15.122 -106.9735,-42.208l0,0.039zm450.3875,42.169l-47.137,0l0,-42.208l154.071,0c-29.052,27.071 -67.276,42.138 -106.986,42.169l0.052,0.039z" opacity="0.2"/>
  <g id="svg_6" mask="url(#mask0_415_11747)">
   <g id="svg_7" filter="url(#filter0_b_415_11747)">
    <path id="svg_8" fill-opacity="0.1" fill="white" d="m82.8643,584.71c0,-5.128 0,-7.691 1.0136,-9.643c0.8542,-1.644 2.195,-2.985 3.8394,-3.839c1.9514,-1.014 4.5151,-1.014 9.6424,-1.014l49.7883,0c5.128,0 7.691,0 9.643,1.014c1.644,0.854 2.985,2.195 3.839,3.839c1.014,1.952 1.014,4.515 1.014,9.643l0,49.789c0,5.127 0,7.691 -1.014,9.642c-0.854,1.644 -2.195,2.985 -3.839,3.839c-1.952,1.014 -4.515,1.014 -9.643,1.014l-49.7883,0c-5.1273,0 -7.691,0 -9.6424,-1.014c-1.6444,-0.854 -2.9852,-2.195 -3.8394,-3.839c-1.0136,-1.951 -1.0136,-4.515 -1.0136,-9.642l0,-49.789z"/>
    <path id="svg_9" stroke-width="0.937853" stroke-opacity="0.2" stroke="white" d="m147.148,569.745l-49.7883,0l-0.0223,0c-2.5448,0 -4.4835,0 -6.0287,0.129c-1.5553,0.129 -2.7538,0.39 -3.8075,0.938c-1.7301,0.899 -3.1407,2.309 -4.0394,4.039c-0.5474,1.054 -0.809,2.253 -0.9382,3.808c-0.1283,1.545 -0.1283,3.484 -0.1283,6.028l0,0.023l0,49.789l0,0.022c0,2.545 0,4.483 0.1283,6.029c0.1292,1.555 0.3908,2.753 0.9382,3.807c0.8987,1.73 2.3093,3.141 4.0394,4.039c1.0537,0.548 2.2522,0.809 3.8075,0.939c1.5451,0.128 3.4837,0.128 6.0284,0.128l0.0226,0l49.7883,0l0.023,0c2.545,0 4.483,0 6.028,-0.128c1.556,-0.13 2.754,-0.391 3.808,-0.939c1.73,-0.898 3.141,-2.309 4.039,-4.039c0.548,-1.054 0.809,-2.252 0.939,-3.807c0.128,-1.546 0.128,-3.484 0.128,-6.029l0,-0.022l0,-49.789l0,-0.023c0,-2.544 0,-4.483 -0.128,-6.028c-0.13,-1.555 -0.391,-2.754 -0.939,-3.808c-0.898,-1.73 -2.309,-3.14 -4.039,-4.039c-1.054,-0.548 -2.252,-0.809 -3.808,-0.938c-1.545,-0.129 -3.483,-0.129 -6.028,-0.129l-0.023,0z"/>
   </g>
   <g id="svg_10" clip-path="url(#clip0_415_11747)">
    <path id="svg_11" fill="white" d="m98.4551,582.407l47.5959,0l-4.329,48.872l-19.521,5.523l-19.412,-5.525l-4.3339,-48.87zm38.7339,10.002l-29.872,-0.007l0.483,5.943l22.948,0.004l-0.578,6.156l-15.05,0l0.544,5.832l14.012,0l-0.83,7.984l-6.595,1.823l-6.7,-1.836l-0.426,-4.783l-5.915,0l0.657,8.738l12.386,3.86l12.178,-3.468l2.758,-30.244l0,-0.002z"/>
   </g>
   <g id="svg_12" filter="url(#filter1_b_415_11747)">
    <path id="svg_13" fill-opacity="0.1" fill="white" d="m359.185,66.2432l-49.706,0c-7.77,0 -14.068,6.2983 -14.068,14.0678l0,49.706c0,7.77 6.298,14.068 14.068,14.068l49.706,0c7.77,0 14.068,-6.298 14.068,-14.068l0,-49.706c0,-7.7695 -6.298,-14.0678 -14.068,-14.0678z"/>
    <path id="svg_14" stroke-width="0.937853" stroke-opacity="0.2" stroke="white" d="m359.185,65.7742l-49.706,0c-8.028,0 -14.537,6.5083 -14.537,14.5368l0,49.706c0,8.029 6.509,14.537 14.537,14.537l49.706,0c8.029,0 14.537,-6.508 14.537,-14.537l0,-49.706c0,-8.0284 -6.508,-14.5368 -14.537,-14.5368z"/>
   </g>
   <path id="svg_15" fill="white" d="m347.7,127.057c1.568,2.56 3.608,4.442 7.216,4.442c3.031,0 4.967,-1.515 4.967,-3.608c0,-2.508 -1.989,-3.397 -5.325,-4.856l-1.829,-0.784c-5.278,-2.249 -8.785,-5.066 -8.785,-11.022c0,-5.486 4.18,-9.662 10.713,-9.662c4.65,0 7.994,1.619 10.403,5.857l-5.696,3.657c-1.254,-2.249 -2.607,-3.135 -4.707,-3.135c-2.143,0 -3.501,1.359 -3.501,3.135c0,2.194 1.359,3.083 4.498,4.442l1.828,0.783c6.215,2.665 9.724,5.382 9.724,11.491c0,6.586 -5.173,10.194 -12.121,10.194c-6.793,0 -11.182,-3.238 -13.329,-7.481l5.944,-3.453zm-25.839,0.634c1.149,2.039 2.194,3.762 4.707,3.762c2.403,0 3.919,-0.94 3.919,-4.596l0,-24.872l7.315,0l0,24.971c0,7.574 -4.441,11.021 -10.923,11.021c-5.856,0 -9.248,-3.031 -10.973,-6.681l5.955,-3.605z"/>
   <g id="svg_16" filter="url(#filter2_b_415_11747)">
    <rect id="svg_17" fill-opacity="0.1" fill="white" rx="15.0056" height="78.7796" width="78.7796" y="25.6665" x="131.038"/>
    <rect id="svg_18" stroke-width="0.937853" stroke-opacity="0.2" stroke="white" rx="15.4746" height="79.7175" width="79.7175" y="25.1976" x="130.569"/>
   </g>
   <path id="svg_19" stroke-width="2.73905" stroke="white" d="m170.251,75.8998c16.572,0.2699 30.086,-4.3646 30.183,-10.3514c0.098,-5.9868 -13.258,-11.0589 -29.83,-11.3288c-16.573,-0.2699 -30.086,4.3646 -30.184,10.3514c-0.097,5.9869 13.258,11.0589 29.831,11.3288z"/>
   <path id="svg_20" stroke-width="2.73905" stroke="white" d="m160.416,70.3146c8.065,13.7141 19.085,22.4772 24.614,19.573c5.528,-2.9042 3.472,-16.3759 -4.593,-30.0899c-8.065,-13.714 -19.085,-22.4771 -24.614,-19.5729c-5.528,2.9041 -3.472,16.3758 4.593,30.0898z"/>
   <path id="svg_21" stroke-width="2.73905" stroke="white" d="m160.594,59.4744c-8.507,13.4441 -11.001,26.8417 -5.57,29.9244c5.431,3.0826 16.731,-5.317 25.238,-18.7611c8.507,-13.4442 11.001,-26.8418 5.57,-29.9244c-5.431,-3.0827 -16.731,5.317 -25.238,18.7611z"/>
   <g id="svg_22" filter="url(#filter3_b_415_11747)">
    <path id="svg_23" fill-opacity="0.2" fill="white" d="m181.769,65.3149c-0.776,-1.5882 -1.641,-3.2003 -2.593,-4.8187c-0.951,-1.617 -1.942,-3.1611 -2.958,-4.6215c-1.841,-0.1607 -3.748,-0.2605 -5.705,-0.2924c-1.956,-0.0318 -3.866,0.0059 -5.711,0.1065c-1.064,1.4265 -2.104,2.9375 -3.107,4.5227c-1.004,1.5865 -1.921,3.1696 -2.749,4.7317c0.776,1.5879 1.641,3.1998 2.593,4.8179c0.952,1.6195 1.945,3.166 2.963,4.6284c1.84,0.1605 3.746,0.2602 5.7,0.292c1.955,0.0319 3.863,-0.0057 5.707,-0.1062c1.065,-1.4285 2.108,-2.9418 3.112,-4.5295c1.004,-1.5863 1.921,-3.1691 2.748,-4.7309z" clip-rule="evenodd" fill-rule="evenodd"/>
   </g>
   <path id="svg_24" fill="white" d="m170.365,70.3479c3.089,0.0503 5.631,-2.2778 5.679,-5.2c0.047,-2.9221 -2.418,-5.3317 -5.506,-5.382c-3.089,-0.0503 -5.631,2.2778 -5.679,5.1999c-0.047,2.9221 2.418,5.3318 5.506,5.3821z"/>
   <g id="svg_25" filter="url(#filter4_b_415_11747)">
    <rect id="svg_26" fill-opacity="0.1" fill="white" transform="rotate(0.656233012676239 415.76699829101165,332.93798828124807) " rx="14.0678" height="78.7797" width="78.7797" y="332.938" x="415.767"/>
    <rect id="svg_27" stroke-width="0.937853" stroke-opacity="0.2" stroke="white" transform="rotate(0.656233012676239 415.3030090331992,332.46398925780875) " rx="14.5367" height="79.7175" width="79.7175" y="332.464" x="415.303"/>
   </g>
   <path id="svg_28" fill="white" d="m441.663,367.843c-0.009,0.738 0.064,1.338 0.199,1.779c0.155,0.441 0.349,0.922 0.622,1.444c0.098,0.161 0.136,0.321 0.135,0.461c-0.002,0.2 -0.125,0.398 -0.386,0.595l-1.268,0.824c-0.181,0.117 -0.361,0.175 -0.521,0.173c-0.199,-0.002 -0.398,-0.104 -0.595,-0.286c-0.276,-0.303 -0.512,-0.625 -0.708,-0.946c-0.196,-0.342 -0.391,-0.724 -0.605,-1.185c-1.578,1.818 -3.545,2.714 -5.901,2.687c-1.676,-0.019 -3.008,-0.513 -3.976,-1.483c-0.967,-0.969 -1.451,-2.252 -1.433,-3.849c0.02,-1.697 0.634,-3.067 1.864,-4.092c1.229,-1.024 2.852,-1.524 4.908,-1.501c0.679,0.008 1.377,0.076 2.114,0.184c0.738,0.109 1.495,0.277 2.291,0.466l0.017,-1.457c0.017,-1.517 -0.29,-2.579 -0.902,-3.205c-0.632,-0.626 -1.706,-0.938 -3.243,-0.955c-0.699,-0.008 -1.418,0.063 -2.159,0.234c-0.741,0.172 -1.462,0.383 -2.164,0.654c-0.321,0.136 -0.561,0.214 -0.701,0.252c-0.14,0.038 -0.241,0.057 -0.32,0.056c-0.28,-0.003 -0.417,-0.204 -0.412,-0.624l0.011,-0.978c0.003,-0.319 0.046,-0.558 0.147,-0.697c0.102,-0.138 0.283,-0.276 0.564,-0.412c0.703,-0.352 1.545,-0.642 2.526,-0.87c0.981,-0.248 2.02,-0.356 3.118,-0.344c2.375,0.028 4.106,0.587 5.211,1.677c1.086,1.091 1.626,2.734 1.601,4.93l-0.074,6.467l0.04,0.001zm-8.139,2.941c0.658,0.008 1.338,-0.104 2.06,-0.336c0.721,-0.231 1.365,-0.663 1.911,-1.255c0.324,-0.376 0.568,-0.793 0.693,-1.27c0.125,-0.478 0.212,-1.056 0.22,-1.735l0.009,-0.838c-0.577,-0.146 -1.194,-0.273 -1.832,-0.36c-0.638,-0.088 -1.257,-0.135 -1.875,-0.142c-1.338,-0.015 -2.319,0.233 -2.984,0.765c-0.665,0.531 -0.993,1.286 -1.004,2.284c-0.011,0.938 0.221,1.64 0.714,2.125c0.474,0.504 1.169,0.752 2.088,0.762zm16.004,2.34c-0.359,-0.005 -0.598,-0.067 -0.756,-0.209c-0.158,-0.121 -0.295,-0.402 -0.41,-0.783l-4.515,-15.484c-0.115,-0.401 -0.172,-0.661 -0.17,-0.801c0.003,-0.319 0.165,-0.497 0.485,-0.493l1.956,0.022c0.379,0.005 0.638,0.067 0.776,0.209c0.158,0.121 0.275,0.402 0.39,0.783l3.203,13.253l3.265,-13.179c0.104,-0.398 0.227,-0.656 0.388,-0.774c0.161,-0.118 0.442,-0.195 0.801,-0.191l1.597,0.019c0.379,0.004 0.638,0.067 0.796,0.208c0.158,0.122 0.295,0.403 0.37,0.783l3.001,13.411l3.607,-13.335c0.124,-0.398 0.267,-0.656 0.408,-0.774c0.161,-0.118 0.421,-0.195 0.781,-0.191l1.856,0.022c0.319,0.003 0.497,0.165 0.493,0.504c-0.001,0.1 -0.022,0.2 -0.043,0.319c-0.022,0.12 -0.063,0.279 -0.146,0.498l-4.987,15.375c-0.125,0.398 -0.267,0.656 -0.428,0.774c-0.161,0.117 -0.422,0.194 -0.761,0.19l-1.717,-0.019c-0.379,-0.005 -0.638,-0.067 -0.796,-0.209c-0.158,-0.141 -0.295,-0.403 -0.37,-0.803l-2.947,-12.91l-3.221,12.82c-0.104,0.398 -0.227,0.656 -0.388,0.794c-0.162,0.138 -0.442,0.194 -0.801,0.19l-1.717,-0.019zm25.645,0.832c-1.038,-0.012 -2.075,-0.143 -3.07,-0.394c-0.996,-0.251 -1.771,-0.52 -2.287,-0.825c-0.317,-0.183 -0.534,-0.385 -0.612,-0.566c-0.078,-0.181 -0.116,-0.381 -0.114,-0.56l0.012,-1.018c0.005,-0.419 0.167,-0.617 0.466,-0.614c0.12,0.002 0.24,0.023 0.359,0.064c0.119,0.041 0.298,0.123 0.497,0.205c0.675,0.308 1.411,0.556 2.187,0.724c0.797,0.169 1.575,0.258 2.373,0.267c1.258,0.014 2.238,-0.194 2.922,-0.625c0.684,-0.432 1.05,-1.066 1.06,-1.885c0.006,-0.559 -0.168,-1.02 -0.523,-1.403c-0.355,-0.384 -1.03,-0.731 -2.004,-1.061l-2.885,-0.932c-1.452,-0.476 -2.522,-1.167 -3.17,-2.072c-0.649,-0.886 -0.977,-1.868 -0.965,-2.906c0.01,-0.839 0.198,-1.575 0.564,-2.21c0.367,-0.635 0.852,-1.188 1.456,-1.62c0.604,-0.452 1.287,-0.784 2.088,-1.014c0.801,-0.231 1.641,-0.321 2.519,-0.311c0.439,0.005 0.898,0.03 1.337,0.095c0.458,0.065 0.876,0.15 1.295,0.235c0.398,0.104 0.776,0.208 1.134,0.332c0.358,0.124 0.636,0.247 0.834,0.369c0.278,0.163 0.476,0.325 0.593,0.506c0.118,0.161 0.176,0.381 0.172,0.661l-0.01,0.938c-0.005,0.419 -0.167,0.637 -0.467,0.633c-0.16,-0.002 -0.418,-0.084 -0.756,-0.248c-1.131,-0.532 -2.406,-0.806 -3.823,-0.822c-1.138,-0.013 -2.038,0.156 -2.662,0.528c-0.623,0.372 -0.949,0.948 -0.958,1.766c-0.007,0.559 0.188,1.04 0.582,1.424c0.395,0.384 1.13,0.772 2.184,1.123l2.824,0.931c1.432,0.476 2.463,1.126 3.072,1.952c0.609,0.825 0.898,1.767 0.886,2.805c-0.01,0.858 -0.198,1.635 -0.545,2.309c-0.367,0.675 -0.853,1.268 -1.478,1.74c-0.624,0.492 -1.367,0.843 -2.228,1.093c-0.902,0.269 -1.841,0.398 -2.859,0.386z"/>
   <path id="svg_29" fill="white" d="m478.835,383.701c-6.623,4.775 -16.194,7.241 -24.398,7.147c-11.498,-0.132 -21.81,-4.502 -29.554,-11.658c-0.612,-0.566 -0.044,-1.319 0.689,-0.871c8.408,5.008 18.813,8.101 29.613,8.225c7.286,0.084 15.308,-1.342 22.709,-4.371c1.104,-0.487 2.028,0.741 0.941,1.528zm2.77,-3.083c-0.826,-1.088 -5.543,-0.583 -7.682,-0.348c-0.64,0.073 -0.733,-0.487 -0.149,-0.9c3.783,-2.592 9.942,-1.762 10.65,-0.876c0.709,0.907 -0.28,7.064 -3.827,9.978c-0.544,0.453 -1.061,0.208 -0.814,-0.388c0.821,-1.967 2.648,-6.399 1.822,-7.466z"/>
   <g id="svg_30" filter="url(#filter5_b_415_11747)">
    <rect id="svg_31" fill-opacity="0.1" fill="white" rx="14.0678" height="78.7797" width="78.7797" y="166" x="210.412"/>
    <rect id="svg_32" stroke-width="0.937853" stroke-opacity="0.2" stroke="white" rx="14.5367" height="79.7175" width="79.7175" y="165.531" x="209.943"/>
   </g>
   <path id="svg_33" fill="white" d="m229.67,214.575l5.914,-38.045c0.043,-0.282 0.174,-0.543 0.374,-0.747c0.2,-0.203 0.459,-0.338 0.74,-0.386c0.281,-0.048 0.57,-0.005 0.826,0.121c0.256,0.126 0.466,0.33 0.599,0.582l6.36,11.932l-14.813,26.543zm42.004,9.232l-5.632,-35.012c-0.042,-0.245 -0.15,-0.475 -0.313,-0.663c-0.162,-0.188 -0.374,-0.328 -0.611,-0.404c-0.237,-0.076 -0.49,-0.086 -0.732,-0.028c-0.242,0.058 -0.464,0.182 -0.64,0.357l-35.515,35.75l19.651,11.074c0.606,0.341 1.289,0.52 1.984,0.52c0.696,0 1.379,-0.179 1.985,-0.52l19.823,-11.074zm-15.969,-30.553l-4.552,-8.708c-0.115,-0.219 -0.287,-0.403 -0.499,-0.531c-0.211,-0.128 -0.454,-0.195 -0.701,-0.195c-0.248,0 -0.49,0.067 -0.702,0.195c-0.211,0.128 -0.384,0.312 -0.499,0.531l-19.983,35.809l26.936,-27.101z"/>
   <g id="svg_34" filter="url(#filter6_b_415_11747)">
    <rect id="svg_35" fill-opacity="0.1" fill="white" rx="14.0678" height="78.7797" width="78.7797" y="216.795" x="360.62"/>
    <rect id="svg_36" stroke-width="0.937853" stroke-opacity="0.2" stroke="white" rx="14.5367" height="79.7175" width="79.7175" y="216.326" x="360.151"/>
   </g>
   <g id="svg_37" clip-path="url(#clip1_415_11747)">
    <path id="svg_38" fill="white" d="m369.959,276.345c0.105,1.326 0.57,2.66 1.787,4.45c1.447,2.126 3.935,3.297 5.757,1.429c1.228,-1.26 14.538,-24.421 20.947,-33.197c0.176,-0.251 0.41,-0.456 0.682,-0.597c0.272,-0.141 0.574,-0.214 0.88,-0.214c0.306,0.001 0.608,0.075 0.88,0.217c0.271,0.143 0.504,0.348 0.679,0.6c6.376,8.8 19.596,32.012 20.819,33.277c1.815,1.875 4.308,0.714 5.762,-1.407c1.43,-2.085 1.828,-3.547 1.831,-5.113c0.002,-1.065 -20.582,-39.549 -22.657,-42.755c-1.994,-3.08 -2.603,-3.751 -5.987,-3.868l-2.581,-0.005c-3.384,0.104 -3.995,0.771 -6.005,3.845c-2.041,3.13 -21.962,40.023 -22.792,42.553l-0.002,0.785z"/>
   </g>
   <g id="svg_39" filter="url(#filter7_b_415_11747)">
    <path id="svg_40" fill-opacity="0.1" fill="white" d="m322.855,303.864l-62.638,0c-4.198,0 -7.602,3.404 -7.602,7.602l0,62.638c0,4.199 3.404,7.602 7.602,7.602l62.638,0c4.199,0 7.602,-3.403 7.602,-7.602l0,-62.638c0,-4.198 -3.403,-7.602 -7.602,-7.602z"/>
    <path id="svg_41" stroke-width="0.937853" stroke-opacity="0.2" stroke="white" d="m322.855,303.395l-62.638,0c-4.457,0 -8.071,3.614 -8.071,8.071l0,62.638c0,4.458 3.614,8.071 8.071,8.071l62.638,0c4.458,0 8.071,-3.613 8.071,-8.071l0,-62.638c0,-4.457 -3.613,-8.071 -8.071,-8.071z"/>
   </g>
   <path id="svg_42" fill="white" d="m300.517,365.852l0,7.602c1.231,0.639 2.736,1.11 4.409,1.429c1.672,0.319 3.496,0.471 5.321,0.471c1.824,0 3.497,-0.167 5.169,-0.516c1.672,-0.35 3.041,-0.928 4.257,-1.673c1.231,-0.806 2.281,-1.824 2.889,-3.193c0.608,-1.368 1.079,-2.888 1.079,-4.865c0,-1.383 -0.213,-2.584 -0.623,-3.649c-0.411,-1.064 -1.004,-1.976 -1.825,-2.736c-0.775,-0.806 -1.672,-1.521 -2.736,-2.129c-1.065,-0.608 -2.281,-1.246 -3.649,-1.824c-1.004,-0.411 -1.825,-0.806 -2.737,-1.201c-0.79,-0.395 -1.474,-0.791 -1.976,-1.186c-0.563,-0.411 -0.988,-0.836 -1.292,-1.277c-0.305,-0.456 -0.457,-0.958 -0.457,-1.52c0,-0.517 0.136,-0.989 0.411,-1.414c0.275,-0.426 0.654,-0.776 1.14,-1.08c0.487,-0.304 1.095,-0.532 1.825,-0.699c0.714,-0.167 1.505,-0.243 2.432,-0.243c0.639,0 1.308,0.047 1.977,0.142c0.699,0.096 1.414,0.244 2.128,0.441c0.715,0.198 1.414,0.441 2.129,0.745c0.669,0.304 1.292,0.654 1.824,1.049l0,-7.145c-1.155,-0.441 -2.433,-0.776 -3.801,-0.988c-1.368,-0.213 -2.889,-0.32 -4.713,-0.32c-1.824,0 -3.497,0.198 -5.169,0.578c-1.673,0.38 -3.041,0.988 -4.257,1.824c-1.232,0.821 -2.129,1.825 -2.889,3.193c-0.714,1.277 -1.064,2.737 -1.064,4.561c0,2.281 0.654,4.257 1.976,5.777c1.308,1.673 3.345,2.889 5.93,4.105c1.049,0.426 1.976,0.852 2.888,1.262c0.913,0.411 1.673,0.837 2.281,1.277c0.654,0.441 1.171,0.928 1.52,1.445c0.38,0.517 0.578,1.125 0.578,1.824c0,0.487 -0.119,0.943 -0.35,1.368c-0.231,0.426 -0.593,0.791 -1.079,1.095c-0.487,0.304 -1.08,0.547 -1.824,0.73c-0.715,0.167 -1.521,0.258 -2.585,0.258c-1.672,0 -3.345,-0.289 -4.865,-0.866c-1.673,-0.578 -3.193,-1.445 -4.561,-2.585l0.289,-0.067zm-12.771,-18.7l9.73,0l0,-6.233l-27.214,0l0,6.233l9.73,0l0,27.822l7.754,0l0,-27.822z" clip-rule="evenodd" fill-rule="evenodd"/>
   <g id="svg_43" filter="url(#filter8_b_415_11747)">
    <rect id="svg_44" fill-opacity="0.1" fill="white" rx="14.0678" height="78.7797" width="78.7797" y="440.791" x="282.627"/>
    <rect id="svg_45" stroke-width="0.937853" stroke-opacity="0.2" stroke="white" rx="14.5367" height="79.7175" width="79.7175" y="440.322" x="282.158"/>
   </g>
   <g id="svg_46" clip-path="url(#clip2_415_11747)">
    <path id="svg_47" fill="white" d="m322.093,453.657c-15.068,0 -27.275,12.217 -27.275,27.275c0,12.057 7.815,22.276 18.644,25.882c1.369,0.257 1.864,-0.587 1.864,-1.316c0,-0.648 -0.016,-2.361 -0.026,-4.635c-7.591,1.643 -9.19,-3.667 -9.19,-3.667c-1.243,-3.144 -3.036,-3.987 -3.036,-3.987c-2.468,-1.686 0.196,-1.65 0.196,-1.65c2.734,0.185 4.173,2.804 4.173,2.804c2.433,4.173 6.382,2.966 7.946,2.264c0.238,-1.758 0.949,-2.967 1.723,-3.64c-6.055,-0.684 -12.422,-3.027 -12.422,-13.479c0,-2.985 1.057,-5.415 2.804,-7.325c-0.301,-0.683 -1.225,-3.462 0.241,-7.219c0,0 2.282,-0.728 7.5,2.797c2.184,-0.605 4.502,-0.906 6.819,-0.922c2.318,0.016 4.635,0.319 6.818,0.922c5.188,-3.525 7.469,-2.797 7.469,-2.797c1.464,3.757 0.54,6.534 0.274,7.219c1.73,1.91 2.787,4.342 2.787,7.325c0,10.475 -6.375,12.785 -12.437,13.452c0.948,0.816 1.836,2.495 1.836,5.044c0,3.648 -0.034,6.587 -0.034,7.475c0,0.709 0.477,1.561 1.882,1.287c10.91,-3.568 18.715,-13.796 18.715,-25.836c0,-15.057 -12.207,-27.275 -27.274,-27.275l0.003,0.002z"/>
   </g>
   <g id="svg_48" filter="url(#filter9_b_415_11747)">
    <rect id="svg_49" fill-opacity="0.1" fill="white" rx="14.0678" height="78.7797" width="78.7797" y="416.407" x="129.756"/>
    <rect id="svg_50" stroke-width="0.937853" stroke-opacity="0.2" stroke="white" rx="14.5367" height="79.7175" width="79.7175" y="415.938" x="129.287"/>
   </g>
   <path id="svg_51" fill="url(#paint2_linear_415_11747)" d="m194.178,438.911l-23.207,41.498c-0.479,0.857 -1.71,0.862 -2.197,0.009l-23.667,-41.503c-0.53,-0.929 0.265,-2.055 1.318,-1.866l23.232,4.152c0.148,0.027 0.3,0.026 0.448,-0.001l22.746,-4.146c1.049,-0.191 1.847,0.926 1.327,1.857l0,0z"/>
   <path id="svg_52" fill="url(#paint3_linear_415_11747)" d="m180.723,431.602l-17.174,3.365c-0.137,0.027 -0.261,0.099 -0.353,0.204c-0.092,0.105 -0.147,0.238 -0.155,0.378l-1.056,17.842c-0.006,0.098 0.011,0.196 0.049,0.286c0.039,0.09 0.098,0.17 0.173,0.233c0.075,0.063 0.163,0.108 0.259,0.131c0.095,0.023 0.194,0.024 0.29,0.002l4.781,-1.104c0.448,-0.103 0.852,0.291 0.76,0.741l-1.421,6.956c-0.095,0.469 0.344,0.869 0.801,0.73l2.954,-0.897c0.458,-0.139 0.898,0.262 0.801,0.731l-2.258,10.926c-0.141,0.684 0.768,1.057 1.147,0.471l0.253,-0.392l13.995,-27.928c0.234,-0.467 -0.17,-1 -0.684,-0.901l-4.922,0.95c-0.462,0.089 -0.855,-0.342 -0.725,-0.794l3.212,-11.136c0.131,-0.454 -0.264,-0.885 -0.727,-0.794l0,0z"/>
   <g id="svg_53" filter="url(#filter10_b_415_11747)">
    <rect id="svg_54" fill-opacity="0.1" fill="white" rx="14.0678" height="78.7797" width="78.7797" y="254.158" x="104.435"/>
    <rect id="svg_55" stroke-width="0.937853" stroke-opacity="0.2" stroke="white" rx="14.5367" height="79.7175" width="79.7175" y="253.689" x="103.966"/>
   </g>
   <path id="svg_56" stroke-width="1.57864" stroke="white" d="m156.753,293.795l0,0.052l0,0.07l0,0.053l0,0.053l0.018,0.07l0,0.052l0,0.053l0.017,0.07l0,0.053l0.018,0.052l0.017,0.071l0,0.052l0.018,0.07l0.017,0.053l0.018,0.07l0,0.07l0.017,0.053l0.018,0.07l0.018,0.07l0.017,0.053l0.035,0.07l0.018,0.07l0.017,0.07l0.018,0.07l0.017,0.071l0.035,0.07l0.018,0.087l0.017,0.071l0.036,0.07l0.017,0.07l0.035,0.088l0.018,0.07l0.035,0.088l0.017,0.087l0.035,0.088l0.036,0.07l0.017,0.088l0.035,0.088l0.035,0.087l0.018,0.105l0.035,0.088l0.017,0.088l0.035,0.105l0.036,0.088l0.017,0.105l0.035,0.105l0.035,0.088l0.018,0.105l0.035,0.105l0.035,0.106l0.017,0.123l0.036,0.105l0.017,0.105l0.035,0.123l0.018,0.105l0.035,0.123l0.017,0.123l0.018,0.122l0.035,0.123l0.018,0.123l0.017,0.123l0.018,0.14l0.035,0.123l0.017,0.14l0.018,0.123l0.017,0.14l0,0.141l0.018,0.14l0.017,0.14l0.018,0.141l0,0.14l0.017,0.14l0,0.158l0,0.14l0.018,0.158l0,0.158l0,0.14l0,0.158l-0.018,0.158l0,0.158l0,0.158l-0.017,0.175l0,0.158l-0.018,0.158l-0.017,0.175l-0.018,0.176l-0.017,0.158l-0.018,0.175l-0.017,0.176l-0.035,0.175l-0.035,0.158l-0.018,0.175l-0.035,0.193l-0.035,0.176l-0.035,0.175l-0.053,0.175l-0.035,0.176l-0.053,0.193l-0.052,0.175l-0.053,0.193l-0.052,0.175l-0.053,0.193l-0.07,0.176l-0.053,0.193l-0.07,0.193l-0.07,0.175l-0.07,0.193l-0.071,0.193l-0.087,0.175l-0.07,0.193l-0.088,0.193l-0.088,0.193l-0.087,0.176l-0.106,0.193l-0.087,0.193l-0.106,0.192l-0.105,0.193l-0.105,0.176l-0.105,0.193l-0.123,0.193l-0.105,0.193l-0.123,0.175l-0.123,0.193l-0.123,0.193l-0.14,0.175l-0.123,0.193l-0.14,0.176l-0.141,0.193l-0.14,0.175l-0.158,0.193l-0.14,0.175l-0.158,0.176l-0.158,0.175l-0.158,0.176l-0.157,0.193l-0.176,0.157l-0.158,0.176l-0.175,0.175l-0.176,0.176l-0.193,0.158l-0.175,0.175l-0.193,0.158l-0.193,0.175l-0.193,0.158l-0.193,0.158l-0.193,0.158l-0.21,0.158l-0.211,0.14l-0.193,0.158l-0.228,0.14l-0.21,0.158l-0.211,0.14l-0.228,0.141l-0.228,0.14l-0.228,0.14l-0.228,0.123l-0.228,0.14l-0.245,0.123l-0.228,0.123l-0.246,0.123l-0.245,0.123l-0.246,0.105l-0.246,0.123l-0.245,0.105l-0.263,0.105l-0.263,0.105l-0.246,0.088l-0.263,0.105l-0.263,0.088l-0.281,0.088l-0.263,0.087l-0.263,0.071l-0.281,0.087l-0.28,0.07l-0.263,0.071l-0.281,0.07l-0.281,0.052l-0.28,0.07l-0.281,0.053l-0.298,0.053l-0.281,0.035l-0.298,0.052l-0.281,0.036l-0.298,0.035l-0.28,0.035l-0.299,0.017l-0.298,0.018l-0.298,0.017l-0.298,0.018l-0.298,0l-0.299,0.017l-0.298,0l-0.298,-0.017l-0.298,0l-0.316,-0.018l-0.298,-0.017l-0.298,-0.018l-0.316,-0.035l-0.298,-0.035l-0.298,-0.035l-0.316,-0.035l-0.298,-0.053l-0.298,-0.052l-0.316,-0.053l-0.298,-0.053l-0.299,-0.07l-0.298,-0.07l-0.316,-0.07l-0.298,-0.07l-0.298,-0.088l-0.298,-0.088l-0.298,-0.087l-0.298,-0.106l-0.299,-0.087l-0.298,-0.106l-0.298,-0.122l-0.298,-0.106l-0.298,-0.122l-0.281,-0.123l-0.298,-0.123l-0.281,-0.14l-0.298,-0.141l-0.281,-0.14l-0.28,-0.14l-0.281,-0.158l-0.281,-0.158l-0.28,-0.158l-0.281,-0.158l-0.281,-0.175l-0.263,-0.175l-0.28,-0.176l-0.263,-0.175l-0.264,-0.193l-0.263,-0.176l-0.263,-0.193l-0.245,-0.21l-0.263,-0.193l-0.246,-0.21l-0.246,-0.211l-0.245,-0.21l-0.246,-0.211l-0.245,-0.228l-0.228,-0.228l-0.246,-0.228l-0.228,-0.228l-0.228,-0.228l-0.21,-0.246l-0.228,-0.245l-0.211,-0.246l-0.21,-0.245l-0.211,-0.246l-0.21,-0.263l-0.193,-0.246l-0.211,-0.263l-0.193,-0.263l-0.193,-0.28l-0.175,-0.264l-0.176,-0.28l-0.192,-0.263l-0.176,-0.281l-0.158,-0.281l-0.175,-0.28l-0.158,-0.298l-0.158,-0.281l-0.14,-0.298l-0.158,-0.281l-0.14,-0.298l-0.141,-0.298l-0.14,-0.298l-0.123,-0.299l-0.123,-0.298l-0.122,-0.316l-0.123,-0.298l-0.105,-0.316l-0.106,-0.298l-0.105,-0.315l-0.105,-0.316l-0.088,-0.316l-0.088,-0.316l-0.087,-0.315l-0.07,-0.316l-0.088,-0.316l-0.053,-0.316l-0.07,-0.315l-0.07,-0.316l-0.053,-0.316l-0.052,-0.333l-0.035,-0.316l-0.035,-0.315l-0.036,-0.334l-0.035,-0.315l-0.035,-0.316l-0.017,-0.333l-0.018,-0.316l0,-0.316l-0.017,-0.333l0,-0.316l0,-0.316l0.017,-0.333l0,-0.316l0.018,-0.315l0.035,-0.316l0.017,-0.316l0.035,-0.316l0.036,-0.315l0.035,-0.316l0.052,-0.316l0.053,-0.315l0.053,-0.316l0.052,-0.298l0.07,-0.316l0.07,-0.298l0.071,-0.316l0.07,-0.298l0.087,-0.298l0.088,-0.299l0.088,-0.298l0.088,-0.298l0.105,-0.298l0.088,-0.298l0.105,-0.281l0.123,-0.281l0.105,-0.298l0.123,-0.28l0.122,-0.281l0.123,-0.281l0.123,-0.263l0.14,-0.281l0.141,-0.263l0.14,-0.28l0.14,-0.263l0.158,-0.263l0.14,-0.246l0.158,-0.263l0.158,-0.246l0.158,-0.263l0.158,-0.245l0.175,-0.246l0.176,-0.228l0.175,-0.246l0.175,-0.228l0.176,-0.228l0.175,-0.228l0.193,-0.228l0.193,-0.228l0.176,-0.21l0.193,-0.211l0.21,-0.21l0.193,-0.211l0.193,-0.21l0.21,-0.193l0.193,-0.193l0.211,-0.193l0.21,-0.193l0.211,-0.193l0.21,-0.175l0.211,-0.176l0.228,-0.175l0.21,-0.175l0.228,-0.158l0.211,-0.158l0.228,-0.158l0.228,-0.158l0.228,-0.158l0.21,-0.14l0.228,-0.14l0.228,-0.141l0.246,-0.14l0.228,-0.123l0.228,-0.14l0.228,-0.123l0.228,-0.105l0.246,-0.123l0.228,-0.105l0.228,-0.123l0.245,-0.105l0.228,-0.088l0.246,-0.105l0.228,-0.088l0.245,-0.088l0.228,-0.087l0.246,-0.088l0.228,-0.07l0.228,-0.07l0.246,-0.07l0.228,-0.071l0.245,-0.07l0.228,-0.052l0.228,-0.053l0.246,-0.053l0.228,-0.052l0.228,-0.053l0.245,-0.035l0.229,-0.035l0.228,-0.035l0.228,-0.035l0.228,-0.035l0.228,-0.018l0.228,-0.017l0.228,-0.018l0.228,-0.017l0.21,-0.018l0.228,0l0.228,-0.018l0.211,0l0.228,0l0.21,0.018l0.211,0l0.21,0l0.211,0.018l0.21,0.017l0.211,0.018l0.21,0.017l0.211,0.018l0.193,0.035l0.21,0.017l0.193,0.035l0.211,0.035l0.192,0.036l0.193,0.035l0.193,0.035l0.193,0.052l0.176,0.035l0.193,0.053l0.175,0.035l0.193,0.053l0.175,0.052l0.176,0.053l0.175,0.053l0.176,0.07l0.175,0.052l0.158,0.053l0.175,0.07l0.158,0.053l0.158,0.07l0.158,0.07l0.158,0.07l0.158,0.07l0.157,0.071l0.158,0.07l0.141,0.07l0.14,0.07l0.158,0.07l0.14,0.07l0.14,0.088l0.123,0.07l0.141,0.07l0.14,0.088l0.123,0.07l0.122,0.088l0.141,0.07l0.123,0.088l0.105,0.088l0.123,0.07l0.122,0.087l0.106,0.071l0.122,0.087l0.106,0.088l0.105,0.07l0.105,0.088l0.105,0.088l0.106,0.07l0.105,0.087l0.088,0.088l0.105,0.07l0.088,0.088l0.105,0.088l0.087,0.07l0.088,0.088l0.088,0.087l0.088,0.07l0.07,0.088l0.087,0.07l0.088,0.088l0.07,0.07l0.07,0.07l0.088,0.088l0.07,0.07l0.07,0.07l0.071,0.088l0.07,0.07l0.07,0.07l0.07,0.071l0.053,0.07l0.07,0.07l0.053,0.07l0.07,0.07l0.052,0.07l0.07,0.053l0.053,0.07l0.053,0.07l0.052,0.053l0.071,0.07l0.052,0.07l0.053,0.053l0.052,0.052l0.053,0.071l0.053,0.052l0.052,0.053l0.035,0.052l0.053,0.053l0.053,0.053l0.052,0.052l0.053,0.053l0.035,0.053l0.053,0.052l0.052,0.035l0.053,0.053l0.035,0.035l0.052,0.053l0.053,0.035l0.035,0.052l0.053,0.035l0.052,0.035l0.035,0.036l0.053,0.035l0.053,0.035l0.035,0.035l0.052,0.035l0.053,0.035l0.053,0.035l0.035,0.035l0.052,0.018l0.053,0.035l0.053,0.035l0.052,0.017l0.053,0.035l0.052,0.018l0.053,0.035l0.053,0.018l0.052,0.017l0.053,0.035l0.053,0.018l0.07,0.017l0.052,0.018l0.053,0.017l0.07,0.035l0.053,0.018l0.07,0.018l0.053,0.017l0.07,0.018l0.07,0.017l0.07,0.018l0.053,0.017l0.07,0.018l0.07,0.017l0.07,0.018l0.07,0l0.088,0.017l0.07,0.018l0.07,0.018l0.088,0.017l0.07,0.018l0.088,0.017l0.07,0.018l0.088,0.017l0.087,0.018l0.088,0.017l0.088,0.018l0.088,0.017l0.087,0.018l0.088,0.017l0.088,0.018l0.105,0.018l0.088,0.035l0.105,0.017l0.088,0.018l0.105,0.035l0.088,0.017l0.105,0.018l0.105,0.035l0.105,0.035l0.106,0.018l0.105,0.035l0.123,0.035l0.105,0.017l0.105,0.035l0.123,0.035l0.105,0.036l0.123,0.052l0.105,0.035l0.123,0.035l0.123,0.053l0.122,0.035l0.106,0.053l0.122,0.035l0.123,0.052l0.123,0.053l0.14,0.053l0.123,0.052l0.123,0.053l0.123,0.07l0.14,0.053l0.123,0.07l0.123,0.052l0.14,0.071l0.123,0.07l0.14,0.07l0.14,0.07l0.123,0.07l0.14,0.088l0.123,0.07l0.141,0.088l0.14,0.087l0.14,0.088l0.123,0.088l0.14,0.088l0.141,0.105l0.14,0.088l0.14,0.105l0.123,0.105l0.14,0.105l0.141,0.105l0.14,0.106l0.14,0.105l0.123,0.123l0.14,0.123l0.141,0.122l0.14,0.123l0.123,0.123l0.14,0.123l0.141,0.14l0.122,0.14l0.141,0.123l0.122,0.14l0.141,0.158l0.123,0.141l0.14,0.14l0.123,0.158l0.122,0.158l0.123,0.158l0.123,0.157l0.123,0.158l0.123,0.176l0.122,0.158l0.123,0.175l0.123,0.175l0.123,0.176l0.105,0.175l0.123,0.193l0.105,0.175l0.105,0.193l0.105,0.193l0.106,0.193l0.105,0.193l0.105,0.193l0.105,0.211l0.088,0.21l0.105,0.193l0.088,0.211l0.088,0.21l0.087,0.228l0.088,0.211l0.088,0.21l0.07,0.228l0.088,0.228l0.07,0.228l0.07,0.228l0.07,0.228l0.07,0.228l0.071,0.228l0.052,0.246l0.053,0.245l0.052,0.228l0.053,0.246l0.053,0.246l0.052,0.245l0.035,0.246l0.035,0.263l0.036,0.245l0.035,0.246l0.035,0.263l0.017,0.263l0.018,0.246l0.017,0.263l0.018,0.263l0.017,0.263l0,0.263l0,0.263l0,0.263l0,0.281l-0.017,0.263l-0.018,0.263l-0.017,0.281l-0.018,0.263l-0.017,0.281l-0.035,0.263l-0.035,0.28l-0.036,0.263l-0.035,0.281l-0.052,0.281l-0.053,0.263l-0.053,0.281l-0.052,0.28l-0.07,0.263l-0.07,0.281l-0.071,0.281l-0.07,0.263l-0.07,0.28l-0.088,0.281l-0.087,0.263l-0.088,0.281l-0.105,0.263l-0.106,0.281l-0.105,0.263l-0.105,0.28l-0.105,0.263l-0.123,0.281l-0.123,0.263l-0.123,0.263l-0.14,0.263l-0.14,0.263l-0.123,0.264l-0.158,0.263l-0.14,0.263l-0.158,0.263l-0.158,0.263l-0.158,0.246l-0.158,0.263l-0.175,0.245l-0.175,0.246l-0.176,0.263l-0.175,0.245l-0.193,0.228l-0.176,0.246l-0.193,0.246l-0.21,0.228l-0.193,0.245l-0.211,0.228l-0.21,0.228l-0.21,0.228l-0.211,0.228l-0.228,0.228l-0.228,0.211l-0.211,0.21l-0.245,0.211l-0.228,0.21l-0.246,0.211l-0.228,0.21l-0.245,0.193l-0.246,0.193l-0.263,0.193l-0.246,0.193l-0.263,0.193l-0.263,0.175l-0.263,0.176l-0.263,0.175l-0.281,0.176l-0.263,0.175l-0.28,0.158l-0.281,0.158l-0.281,0.158l-0.28,0.157l-0.281,0.141l-0.298,0.14l-0.281,0.14l-0.298,0.141l-0.298,0.123l-0.298,0.14l-0.299,0.105l-0.298,0.123l-0.315,0.123l-0.299,0.105l-0.315,0.105l-0.299,0.105l-0.315,0.088l-0.316,0.088l-0.316,0.088l-0.315,0.087l-0.316,0.07l-0.316,0.071l-0.316,0.07l-0.333,0.07l-0.316,0.052l-0.315,0.053l-0.334,0.053l-0.315,0.035l-0.334,0.035l-0.333,0.035l-0.316,0.035l-0.333,0.018l-0.316,0.017l-0.333,0.018l-0.333,0.017l-0.333,0l-0.316,0l-0.333,0l-0.334,-0.017l-0.315,-0.018l-0.334,-0.017l-0.333,-0.018l-0.316,-0.035l-0.333,-0.035l-0.316,-0.035l-0.333,-0.053l-0.316,-0.052l-0.333,-0.053l-0.316,-0.053l-0.315,-0.07l-0.334,-0.07l-0.315,-0.07l-0.316,-0.07l-0.316,-0.088l-0.316,-0.088l-0.315,-0.087l-0.299,-0.106l-0.315,-0.087l-0.298,-0.106l-0.316,-0.122l-0.298,-0.106l-0.299,-0.122l-0.315,-0.123l-0.281,-0.123l-0.298,-0.14l-0.298,-0.123l-0.298,-0.14l-0.281,-0.158l-0.281,-0.141l-0.298,-0.157l-0.281,-0.158l-0.263,-0.158l-0.28,-0.158l-0.281,-0.175l-0.263,-0.176l-0.263,-0.175l-0.263,-0.176l-0.263,-0.175l-0.264,-0.193l-0.245,-0.193l-0.246,-0.193l-0.263,-0.193l-0.228,-0.21l-0.245,-0.193l-0.246,-0.211l-0.228,-0.21l-0.228,-0.211l-0.228,-0.228l-0.228,-0.21l-0.211,-0.228l-0.228,-0.228l-0.21,-0.211l-0.211,-0.245l-0.192,-0.228l-0.211,-0.228l-0.193,-0.246l-0.193,-0.246l-0.175,-0.228l-0.193,-0.245l-0.176,-0.246l-0.175,-0.263l-0.175,-0.245l-0.176,-0.246l-0.158,-0.263l-0.158,-0.246l-0.157,-0.263l-0.158,-0.263l-0.141,-0.263l-0.14,-0.263l-0.14,-0.263l-0.141,-0.263l-0.122,-0.263l-0.123,-0.264l-0.123,-0.28l-0.123,-0.263l-0.105,-0.263l-0.123,-0.281l-0.087,-0.263l-0.106,-0.281l-0.105,-0.263l-0.088,-0.281l-0.087,-0.28l-0.088,-0.263l-0.07,-0.281l-0.07,-0.281l-0.071,-0.263l-0.07,-0.28l-0.052,-0.281l-0.07,-0.263l-0.053,-0.281l-0.053,-0.28l-0.035,-0.263l-0.035,-0.281l-0.052,-0.263l-0.018,-0.281l-0.035,-0.263l-0.018,-0.281l-0.035,-0.263l0,-0.28l-0.017,-0.263l-0.018,-0.264l0,-0.28l0,-0.263l0,-0.263l0.018,-0.264l0,-0.263l0.017,-0.263l0.018,-0.263l0.017,-0.245l0.035,-0.264l0.018,-0.245l0.035,-0.263l0.035,-0.246l0.035,-0.263l0.053,-0.245l0.035,-0.246l0.053,-0.246l0.052,-0.245l0.053,-0.228l0.07,-0.246l0.053,-0.228l0.07,-0.245l0.07,-0.228l0.07,-0.228l0.07,-0.228l0.07,-0.228l0.088,-0.229l0.07,-0.21l0.088,-0.228l0.088,-0.21l0.087,-0.211l0.088,-0.21l0.088,-0.211l0.105,-0.21l0.088,-0.193l0.105,-0.211l0.105,-0.193l0.105,-0.193l0.106,-0.193l0.105,-0.193l0.105,-0.193l0.123,-0.175l0.105,-0.193l0.123,-0.175l0.123,-0.176l0.105,-0.175l0.123,-0.176l0.123,-0.157l0.122,-0.176l0.123,-0.158l0.123,-0.158l0.123,-0.157l0.14,-0.158l0.123,-0.141l0.123,-0.157l0.14,-0.141l0.123,-0.14l0.14,-0.14l0.123,-0.141l0.14,-0.14l0.14,-0.123l0.123,-0.14l0.141,-0.123l0.14,-0.123l0.123,-0.123l0.14,-0.105l0.14,-0.123l0.141,-0.105l0.14,-0.105l0.123,-0.123l0.14,-0.105l0.14,-0.088l0.141,-0.105l0.14,-0.088l0.123,-0.105l0.14,-0.088l0.14,-0.087l0.141,-0.088l0.123,-0.088l0.14,-0.087l0.14,-0.071l0.123,-0.07l0.14,-0.088l0.141,-0.07l0.122,-0.07l0.141,-0.07l0.123,-0.07l0.14,-0.053l0.123,-0.07l0.122,-0.053l0.141,-0.052l0.123,-0.07l0.122,-0.053l0.123,-0.053l0.123,-0.035l0.123,-0.052l0.122,-0.053l0.123,-0.035l0.123,-0.053l0.105,-0.035l0.123,-0.052l0.123,-0.035l0.105,-0.035l0.123,-0.036l0.105,-0.035l0.105,-0.035l0.123,-0.035l0.105,-0.017l0.106,-0.035l0.105,-0.036l0.105,-0.017l0.105,-0.035l0.106,-0.018l0.087,-0.035l0.106,-0.017l0.105,-0.018l0.087,-0.035l0.106,-0.017l0.087,-0.018l0.088,-0.018l0.088,-0.017l0.088,-0.018l0.087,-0.017l0.088,-0.018l0.088,-0.017l0.087,-0.018l0.088,-0.017l0.07,-0.018l0.088,-0.017l0.07,-0.018l0.088,-0.017l0.07,-0.018l0.07,-0.018l0.07,-0.017l0.07,-0.018l0.088,-0.017l0.053,-0.018l0.07,0l0.07,-0.017l0.07,-0.018l0.07,-0.017l0.053,-0.018l0.07,-0.017l0.053,-0.036l0.07,-0.017l0.053,-0.018l0.07,-0.017l0.052,-0.018l0.053,-0.017l0.053,-0.035l0.07,-0.018l0.052,-0.017l0.053,-0.035l0.053,-0.018l0.052,-0.018l0.053,-0.035l0.052,-0.035l0.036,-0.017l0.052,-0.035l0.053,-0.035l0.052,-0.018l0.053,-0.035l0.035,-0.035l0.053,-0.035l0.052,-0.035l0.053,-0.035l0.035,-0.035l0.053,-0.036l0.052,-0.052l0.035,-0.035l0.053,-0.035l0.053,-0.053l0.035,-0.035l0.052,-0.053l0.053,-0.035l0.035,-0.052l0.053,-0.053l0.052,-0.053l0.053,-0.035l0.035,-0.052l0.053,-0.053l0.052,-0.053l0.053,-0.07l0.052,-0.052l0.053,-0.053l0.053,-0.053l0.052,-0.07l0.053,-0.052l0.053,-0.07l0.052,-0.053l0.053,-0.07l0.07,-0.07l0.053,-0.053l0.052,-0.07l0.07,-0.07l0.053,-0.071l0.07,-0.07l0.07,-0.07l0.053,-0.07l0.07,-0.07l0.07,-0.07l0.07,-0.071l0.071,-0.087l0.07,-0.07l0.07,-0.071l0.088,-0.087l0.07,-0.07l0.07,-0.071l0.088,-0.087l0.087,-0.07l0.071,-0.088l0.087,-0.07l0.088,-0.088l0.088,-0.088l0.087,-0.07l0.106,-0.088l0.087,-0.07l0.106,-0.087l0.087,-0.088l0.105,-0.07l0.106,-0.088l0.105,-0.088l0.105,-0.07l0.105,-0.088l0.106,-0.087l0.122,-0.07l0.106,-0.088l0.122,-0.088l0.123,-0.07l0.123,-0.088l0.123,-0.087l0.123,-0.071l0.122,-0.087l0.141,-0.07l0.123,-0.071l0.14,-0.087l0.14,-0.07l0.14,-0.088l0.141,-0.07l0.14,-0.07l0.158,-0.071l0.14,-0.07l0.158,-0.07l0.158,-0.07l0.14,-0.07l0.158,-0.07l0.176,-0.071l0.158,-0.052l0.157,-0.07l0.176,-0.053l0.158,-0.07l0.175,-0.053l0.175,-0.052l0.176,-0.053l0.175,-0.053l0.176,-0.052l0.193,-0.053l0.175,-0.053l0.193,-0.035l0.193,-0.052l0.193,-0.035l0.175,-0.035l0.211,-0.053l0.193,-0.035l0.193,-0.018l0.193,-0.035l0.21,-0.035l0.211,-0.017l0.192,-0.018l0.211,-0.017l0.21,-0.018l0.211,-0.017l0.21,-0.018l0.211,0l0.228,-0.018l0.21,0l0.211,0l0.228,0.018l0.228,0l0.21,0l0.228,0.018l0.229,0.017l0.228,0.018l0.228,0.017l0.228,0.035l0.228,0.018l0.228,0.035l0.228,0.035l0.228,0.035l0.228,0.053l0.245,0.035l0.228,0.052l0.228,0.053l0.246,0.07l0.228,0.053l0.228,0.07l0.246,0.053l0.228,0.07l0.245,0.087l0.228,0.071l0.246,0.087l0.228,0.088l0.245,0.088l0.228,0.087l0.246,0.106l0.228,0.105l0.228,0.105l0.246,0.105l0.228,0.106l0.228,0.122l0.245,0.123l0.228,0.123l0.228,0.123l0.228,0.14l0.228,0.123l0.228,0.14l0.228,0.158l0.228,0.14l0.228,0.158l0.228,0.158l0.211,0.158l0.228,0.158l0.21,0.158l0.228,0.175l0.211,0.175l0.21,0.176l0.211,0.193l0.21,0.175l0.211,0.193l0.21,0.193l0.211,0.193l0.193,0.211l0.193,0.192l0.21,0.211l0.193,0.21l0.193,0.211l0.193,0.228l0.175,0.21l0.193,0.228l0.176,0.228l0.175,0.229l0.176,0.245l0.175,0.228l0.175,0.246l0.158,0.245l0.176,0.246l0.158,0.263l0.157,0.245l0.158,0.264l0.141,0.245l0.157,0.263l0.141,0.281l0.14,0.263l0.123,0.263l0.14,0.281l0.123,0.28l0.14,0.264l0.106,0.28l0.122,0.298l0.123,0.281l0.105,0.281l0.106,0.298l0.105,0.298l0.088,0.281l0.087,0.298l0.088,0.298l0.088,0.298l0.087,0.316l0.07,0.298l0.071,0.298l0.07,0.316l0.07,0.298l0.053,0.316l0.052,0.316l0.053,0.315l0.035,0.299l0.035,0.315l0.035,0.316l0.035,0.316l0.035,0.333l0.018,0.316l0.017,0.316l0,0.315l0.018,0.316l0,0.333l0,0.316l-0.018,0.316l0,0.333l-0.017,0.316l-0.035,0.315l-0.018,0.334l-0.035,0.315l-0.035,0.316l-0.035,0.333l-0.053,0.316l-0.052,0.316l-0.053,0.333l-0.07,0.316l-0.053,0.316l-0.07,0.315l-0.088,0.316l-0.07,0.316l-0.087,0.316l-0.088,0.315l-0.088,0.316l-0.105,0.316l-0.105,0.298l-0.106,0.316l-0.122,0.298l-0.106,0.316l-0.122,0.298l-0.123,0.298l-0.14,0.316l-0.141,0.298l-0.14,0.281l-0.14,0.298l-0.141,0.298l-0.158,0.281l-0.158,0.298l-0.157,0.28l-0.176,0.281l-0.158,0.281l-0.175,0.28l-0.193,0.281l-0.175,0.263l-0.193,0.281l-0.193,0.263l-0.193,0.263l-0.193,0.263l-0.193,0.246l-0.211,0.263l-0.21,0.245l-0.211,0.246l-0.228,0.245l-0.21,0.246l-0.228,0.246l-0.228,0.228l-0.228,0.228l-0.228,0.228l-0.246,0.228l-0.245,0.21l-0.246,0.228l-0.245,0.211l-0.246,0.21l-0.246,0.193l-0.263,0.211l-0.245,0.193l-0.263,0.192l-0.263,0.193l-0.264,0.176l-0.28,0.175l-0.263,0.176l-0.281,0.175l-0.263,0.175l-0.281,0.158l-0.28,0.158l-0.281,0.158l-0.281,0.14l-0.28,0.158l-0.299,0.141l-0.28,0.122l-0.281,0.141l-0.298,0.122l-0.298,0.123l-0.281,0.123l-0.298,0.123l-0.298,0.105l-0.298,0.105l-0.299,0.088l-0.298,0.105l-0.298,0.088l-0.298,0.088l-0.316,0.087l-0.298,0.07l-0.298,0.071l-0.298,0.07l-0.316,0.07l-0.298,0.053l-0.299,0.052l-0.315,0.053l-0.298,0.035l-0.299,0.053l-0.315,0.035l-0.299,0.035l-0.298,0.017l-0.316,0.018l-0.298,0.017l-0.298,0.018l-0.298,0l-0.298,0.017l-0.298,0l-0.316,-0.017l-0.298,0l-0.281,-0.018l-0.298,-0.017l-0.298,-0.018l-0.299,-0.035l-0.298,-0.017l-0.28,-0.035l-0.299,-0.053l-0.28,-0.035l-0.298,-0.053l-0.281,-0.052l-0.281,-0.053l-0.28,-0.053l-0.281,-0.07l-0.281,-0.07l-0.28,-0.07l-0.263,-0.07l-0.281,-0.07l-0.263,-0.088l-0.281,-0.088l-0.263,-0.088l-0.263,-0.087l-0.263,-0.106l-0.246,-0.105l-0.263,-0.087l-0.245,-0.106l-0.263,-0.123l-0.246,-0.105l-0.246,-0.123l-0.245,-0.122l-0.246,-0.123l-0.228,-0.123l-0.245,-0.123l-0.228,-0.122l-0.228,-0.141l-0.228,-0.14l-0.228,-0.14l-0.211,-0.141l-0.228,-0.14l-0.21,-0.14l-0.211,-0.158l-0.21,-0.141l-0.211,-0.157l-0.193,-0.158l-0.193,-0.158l-0.21,-0.158l-0.193,-0.158l-0.176,-0.175l-0.193,-0.158l-0.175,-0.158l-0.193,-0.175l-0.175,-0.176l-0.176,-0.175l-0.158,-0.176l-0.175,-0.175l-0.158,-0.175l-0.158,-0.176l-0.158,-0.175l-0.157,-0.176l-0.141,-0.175l-0.158,-0.193l-0.14,-0.175l-0.14,-0.193l-0.123,-0.176l-0.14,-0.193l-0.123,-0.175l-0.123,-0.193l-0.123,-0.193l-0.123,-0.193l-0.122,-0.175l-0.106,-0.193l-0.105,-0.193l-0.123,-0.193l-0.087,-0.176l-0.106,-0.193l-0.105,-0.193l-0.087,-0.192l-0.088,-0.193l-0.088,-0.176l-0.088,-0.193l-0.07,-0.193l-0.087,-0.193l-0.071,-0.175l-0.07,-0.193l-0.07,-0.193l-0.07,-0.175l-0.053,-0.193l-0.07,-0.176l-0.053,-0.193l-0.052,-0.175l-0.053,-0.193l-0.052,-0.175l-0.035,-0.193l-0.053,-0.176l-0.035,-0.175l-0.035,-0.176l-0.035,-0.175l-0.035,-0.193l-0.035,-0.175l-0.018,-0.158l-0.035,-0.176l-0.018,-0.175l-0.017,-0.175l-0.018,-0.158l-0.017,-0.176l-0.018,-0.158l-0.017,-0.175l0,-0.158l-0.018,-0.158l0,-0.175l-0.017,-0.158l0,-0.158l0,-0.14l0,-0.158l0,-0.158l0.017,-0.14l0,-0.158l0,-0.14l0.018,-0.158l0.017,-0.141l0,-0.14l0.018,-0.14l0.017,-0.14l0.018,-0.141l0.017,-0.123l0.018,-0.14l0.017,-0.14l0.018,-0.123l0.018,-0.123l0.017,-0.123l0.035,-0.122l0.018,-0.123l0.017,-0.123l0.035,-0.123l0.018,-0.123l0.035,-0.105l0.017,-0.123l0.036,-0.105l0.017,-0.123l0.035,-0.105l0.018,-0.105l0.035,-0.105l0.035,-0.106l0.017,-0.105l0.035,-0.087l0.036,-0.106l0.017,-0.087l0.035,-0.106l0.035,-0.087l0.018,-0.088l0.035,-0.105l0.017,-0.088l0.036,-0.088l0.035,-0.087l0.017,-0.071l0.035,-0.087l0.018,-0.088l0.035,-0.07l0.017,-0.088l0.035,-0.07l0.018,-0.088l0.035,-0.07l0.018,-0.07l0.035,-0.088l0.017,-0.07l0.018,-0.07l0.017,-0.07l0.035,-0.07l0.018,-0.053l0.017,-0.07l0.018,-0.07l0.018,-0.071l0.017,-0.07l0.018,-0.052l0.017,-0.07l0,-0.053l0.018,-0.07l0.017,-0.053l0.018,-0.07l0,-0.053l0.017,-0.07l0,-0.052l0.018,-0.053l0,-0.07l0,-0.053l0.017,-0.052l0,-0.071l0,-0.052l0,-0.053l0,-0.07l0,-0.053l0,-0.052l0,-0.07l-0.017,-0.053l0,-0.053l0,-0.07l-0.018,-0.052l0,-0.053l0,-0.07l-0.017,-0.053l-0.018,-0.07l0,-0.053l-0.017,-0.07l-0.018,-0.052l-0.017,-0.071l-0.018,-0.052l-0.017,-0.07l-0.018,-0.071l-0.018,-0.052l-0.017,-0.07l-0.018,-0.07l-0.017,-0.071l-0.018,-0.07l-0.017,-0.07l-0.035,-0.07l-0.018,-0.07l-0.017,-0.07l-0.035,-0.088l-0.018,-0.07l-0.035,-0.07l-0.018,-0.088l-0.035,-0.07l-0.017,-0.088l-0.035,-0.088l-0.018,-0.087l-0.035,-0.071l-0.035,-0.087l-0.018,-0.088l-0.035,-0.088l-0.035,-0.105l-0.017,-0.088l-0.035,-0.087l-0.018,-0.106l-0.035,-0.087l-0.035,-0.106l-0.018,-0.105l-0.035,-0.105l-0.035,-0.105l-0.017,-0.106l-0.035,-0.105l-0.018,-0.105l-0.035,-0.105l-0.035,-0.123l-0.018,-0.105l-0.035,-0.123l-0.017,-0.123l-0.018,-0.105l-0.035,-0.123l-0.017,-0.123l-0.018,-0.14l-0.017,-0.123l-0.036,-0.123l-0.017,-0.14l-0.018,-0.123l-0.017,-0.14l-0.018,-0.123l-0.017,-0.14l0,-0.14l-0.018,-0.141l-0.017,-0.14l0,-0.158l-0.018,-0.14l0,-0.158l0,-0.14l-0.017,-0.158l0,-0.141l0,-0.157l0,-0.158l0.017,-0.158l0,-0.158l0,-0.158l0.018,-0.175l0,-0.158l0.017,-0.158l0.018,-0.175l0.017,-0.158l0.018,-0.176l0.017,-0.175l0.035,-0.176l0.018,-0.175l0.035,-0.175l0.035,-0.176l0.035,-0.175l0.035,-0.176l0.035,-0.175l0.035,-0.175l0.053,-0.193l0.053,-0.176l0.035,-0.175l0.052,-0.193l0.053,-0.175l0.07,-0.193l0.053,-0.176l0.07,-0.193l0.07,-0.193l0.07,-0.175l0.07,-0.193l0.071,-0.193l0.087,-0.193l0.07,-0.175l0.088,-0.193l0.088,-0.193l0.088,-0.193l0.105,-0.176l0.088,-0.193l0.105,-0.193l0.105,-0.192l0.105,-0.193l0.106,-0.176l0.122,-0.193l0.123,-0.193l0.105,-0.193l0.123,-0.175l0.14,-0.193l0.123,-0.175l0.141,-0.193l0.14,-0.193l0.14,-0.176l0.141,-0.175l0.14,-0.193l0.158,-0.175l0.158,-0.176l0.157,-0.175l0.158,-0.193l0.158,-0.176l0.176,-0.175l0.157,-0.158l0.176,-0.175l0.193,-0.176l0.175,-0.158l0.176,-0.175l0.193,-0.158l0.192,-0.175l0.193,-0.158l0.193,-0.158l0.211,-0.158l0.193,-0.14l0.21,-0.158l0.211,-0.158l0.21,-0.14l0.211,-0.141l0.228,-0.157l0.228,-0.141l0.21,-0.122l0.228,-0.141l0.228,-0.14l0.246,-0.123l0.228,-0.123l0.245,-0.122l0.246,-0.123l0.246,-0.123l0.245,-0.105l0.246,-0.123l0.245,-0.105l0.263,-0.106l0.264,-0.105l0.245,-0.087l0.263,-0.106l0.263,-0.087l0.281,-0.088l0.263,-0.088l0.263,-0.07l0.281,-0.088l0.28,-0.07l0.281,-0.07l0.263,-0.07l0.281,-0.053l0.298,-0.052l0.281,-0.053l0.28,-0.053l0.281,-0.052l0.298,-0.035l0.298,-0.035l0.281,-0.036l0.298,-0.035l0.298,-0.017l0.299,-0.035l0.28,0l0.298,-0.018l0.299,-0.017l0.315,0l0.299,0l0.298,0.017l0.298,0l0.298,0.018l0.298,0.017l0.316,0.035l0.298,0.018l0.298,0.035l0.316,0.035l0.298,0.053l0.298,0.035l0.316,0.052l0.298,0.053l0.299,0.07l0.315,0.053l0.299,0.07l0.298,0.088l0.298,0.07l0.316,0.088l0.298,0.087l0.298,0.088l0.298,0.105l0.298,0.105l0.299,0.106l0.298,0.105l0.28,0.123l0.299,0.122l0.298,0.123l0.28,0.123l0.299,0.14l0.28,0.141l0.281,0.14l0.298,0.14l0.281,0.158l0.28,0.158l0.263,0.158l0.281,0.158l0.281,0.175l0.263,0.176l0.281,0.175l0.263,0.175l0.263,0.193l0.263,0.193l0.263,0.193l0.246,0.193l0.263,0.193l0.245,0.211l0.246,0.21l0.245,0.211l0.246,0.228l0.245,0.21l0.228,0.228l0.229,0.228l0.228,0.228l0.228,0.246l0.228,0.245l0.21,0.228l0.228,0.246l0.211,0.263l0.21,0.246l0.193,0.263l0.211,0.245l0.192,0.263l0.193,0.263l0.193,0.281l0.176,0.263l0.193,0.281l0.175,0.263l0.176,0.281l0.157,0.28l0.158,0.298l0.176,0.281l0.158,0.281l0.14,0.298l0.158,0.298l0.14,0.281l0.14,0.298l0.123,0.298l0.14,0.316l0.123,0.298l0.123,0.298l0.105,0.316l0.106,0.298l0.105,0.316l0.105,0.316l0.105,0.298l0.088,0.316l0.088,0.315l0.087,0.316l0.07,0.316l0.071,0.315l0.07,0.316l0.07,0.333l0.053,0.316l0.052,0.316l0.053,0.316l0.052,0.333l0.036,0.316l0.035,0.315l0.017,0.334l0.035,0.315l0.018,0.316l0.017,0.333l0.018,0.316l0,0.316l0,0.333l0,0.316l-0.018,0.316l-0.017,0.333l-0.018,0.316l-0.017,0.315l-0.035,0.316l-0.018,0.316l-0.035,0.315l-0.053,0.316l-0.035,0.316l-0.052,0.298l-0.053,0.316l-0.07,0.316l-0.07,0.298l-0.053,0.315l-0.088,0.299l-0.07,0.298l-0.087,0.316l-0.088,0.298l-0.088,0.298l-0.088,0.298l-0.105,0.281l-0.105,0.298l-0.105,0.281l-0.106,0.298l-0.122,0.28l-0.106,0.281l-0.122,0.281l-0.141,0.28l-0.122,0.281l-0.141,0.263l-0.123,0.263l-0.157,0.281l-0.141,0.263l-0.14,0.263l-0.158,0.246l-0.158,0.263l-0.158,0.245l-0.158,0.263l-0.157,0.246l-0.176,0.228l-0.175,0.246l-0.176,0.245l-0.175,0.228l-0.175,0.228l-0.176,0.228l-0.193,0.228l-0.193,0.211l-0.193,0.228l-0.193,0.21l-0.193,0.211l-0.192,0.21l-0.211,0.193l-0.193,0.193l-0.21,0.211l-0.211,0.175l-0.21,0.193l-0.211,0.193l-0.21,0.175l-0.211,0.176l-0.21,0.175l-0.228,0.158l-0.211,0.175l-0.228,0.158l-0.228,0.158l-0.21,0.158l-0.228,0.14l-0.228,0.158l-0.228,0.141l-0.228,0.14l-0.228,0.123l-0.229,0.14l-0.245,0.123l-0.228,0.123l-0.228,0.122l-0.228,0.106l-0.246,0.122l-0.228,0.106l-0.245,0.105l-0.228,0.088l-0.228,0.105l-0.246,0.087l-0.228,0.088l-0.246,0.088l-0.228,0.088l-0.245,0.07l-0.228,0.07l-0.246,0.07l-0.228,0.07l-0.228,0.053l-0.245,0.07l-0.228,0.053l-0.246,0.052l-0.228,0.053l-0.228,0.035l-0.228,0.035l-0.246,0.053l-0.228,0.035l-0.228,0.017l-0.228,0.035l-0.228,0.018l-0.228,0.017l-0.21,0.018l-0.228,0.018l-0.228,0.017l-0.228,0l-0.211,0.018l-0.228,0l-0.21,0l-0.211,-0.018l-0.228,0l-0.21,-0.017l-0.211,0l-0.21,-0.018l-0.211,-0.018l-0.193,-0.017l-0.21,-0.035l-0.211,-0.018l-0.193,-0.035l-0.21,-0.017l-0.193,-0.035l-0.193,-0.035l-0.193,-0.036l-0.193,-0.052l-0.193,-0.035l-0.175,-0.053l-0.193,-0.035l-0.176,-0.053l-0.192,-0.052l-0.176,-0.053l-0.175,-0.052l-0.176,-0.053l-0.175,-0.053l-0.176,-0.07l-0.157,-0.052l-0.176,-0.071l-0.158,-0.052l-0.158,-0.07l-0.157,-0.071l-0.158,-0.052l-0.158,-0.07l-0.158,-0.071l-0.14,-0.07l-0.158,-0.087l-0.14,-0.071l-0.141,-0.07l-0.14,-0.07l-0.14,-0.088l-0.141,-0.07l-0.14,-0.07l-0.123,-0.088l-0.14,-0.07l-0.123,-0.087l-0.123,-0.071l-0.123,-0.087l-0.122,-0.071l-0.123,-0.087l-0.105,-0.088l-0.123,-0.07l-0.105,-0.088l-0.106,-0.087l-0.122,-0.071l-0.106,-0.087l-0.105,-0.088l-0.088,-0.07l-0.105,-0.088l-0.105,-0.088l-0.088,-0.07l-0.087,-0.087l-0.106,-0.088l-0.087,-0.07l-0.088,-0.088l-0.088,-0.07l-0.088,-0.088l-0.07,-0.088l-0.087,-0.07l-0.071,-0.07l-0.087,-0.088l-0.07,-0.07l-0.071,-0.088l-0.087,-0.07l-0.07,-0.07l-0.071,-0.07l-0.07,-0.088l-0.052,-0.07l-0.071,-0.07l-0.07,-0.07l-0.07,-0.07l-0.053,-0.071l-0.07,-0.07l-0.052,-0.052l-0.053,-0.07l-0.07,-0.071l-0.053,-0.07l-0.052,-0.052l-0.053,-0.071l-0.053,-0.052l-0.052,-0.07l-0.053,-0.053l-0.052,-0.053l-0.053,-0.07l-0.053,-0.052l-0.052,-0.053l-0.053,-0.053l-0.053,-0.052l-0.035,-0.053l-0.052,-0.052l-0.053,-0.036l-0.052,-0.052l-0.036,-0.053l-0.052,-0.035l-0.053,-0.052l-0.035,-0.036l-0.053,-0.052l-0.052,-0.035l-0.035,-0.035l-0.053,-0.053l-0.052,-0.035l-0.053,-0.035l-0.035,-0.035l-0.053,-0.035l-0.052,-0.035l-0.035,-0.035l-0.053,-0.018l-0.053,-0.035l-0.052,-0.035l-0.053,-0.018l-0.053,-0.035l-0.052,-0.035l-0.053,-0.017l-0.052,-0.035l-0.053,-0.018l-0.053,-0.018l-0.052,-0.035l-0.053,-0.017l-0.053,-0.018l-0.052,-0.017l-0.07,-0.035l-0.053,-0.018l-0.07,-0.017l-0.053,-0.018l-0.07,-0.018l-0.053,-0.017l-0.07,-0.018l-0.07,-0.017l-0.052,-0.018l-0.071,-0.017l-0.07,-0.018l-0.07,-0.017l-0.07,-0.018l-0.07,-0.017l-0.088,-0.018l-0.07,0l-0.07,-0.017l-0.088,-0.018l-0.07,-0.018l-0.088,-0.017l-0.07,-0.018l-0.088,-0.017l-0.087,-0.018l-0.088,-0.017l-0.088,-0.018l-0.088,-0.017l-0.087,-0.018l-0.088,-0.017l-0.088,-0.035l-0.105,-0.018l-0.088,-0.018l-0.105,-0.017l-0.088,-0.035l-0.105,-0.018l-0.105,-0.017l-0.088,-0.035l-0.105,-0.018l-0.105,-0.035l-0.105,-0.035l-0.123,-0.018l-0.105,-0.035l-0.106,-0.035l-0.105,-0.035l-0.123,-0.035l-0.105,-0.035l-0.123,-0.035l-0.123,-0.035l-0.105,-0.053l-0.123,-0.035l-0.122,-0.052l-0.123,-0.036l-0.123,-0.052l-0.123,-0.053l-0.123,-0.052l-0.122,-0.053l-0.123,-0.053l-0.123,-0.052l-0.14,-0.053l-0.123,-0.07l-0.123,-0.053l-0.14,-0.07l-0.123,-0.07l-0.14,-0.07l-0.123,-0.07l-0.14,-0.071l-0.141,-0.07l-0.122,-0.087l-0.141,-0.071l-0.14,-0.087l-0.123,-0.088l-0.14,-0.088l-0.14,-0.087l-0.141,-0.088l-0.14,-0.105l-0.123,-0.088l-0.14,-0.105l-0.141,-0.105l-0.14,-0.106l-0.14,-0.105l-0.123,-0.105l-0.14,-0.123l-0.141,-0.105l-0.14,-0.123l-0.123,-0.123l-0.14,-0.123l-0.14,-0.122l-0.123,-0.141l-0.14,-0.122l-0.141,-0.141l-0.123,-0.14l-0.14,-0.14l-0.123,-0.141l-0.14,-0.158l-0.123,-0.14l-0.123,-0.158l-0.14,-0.158l-0.123,-0.158l-0.122,-0.157l-0.123,-0.158l-0.123,-0.176l-0.123,-0.158l-0.123,-0.175l-0.105,-0.175l-0.123,-0.176l-0.105,-0.175l-0.123,-0.193l-0.105,-0.193l-0.105,-0.175l-0.105,-0.193l-0.123,-0.193l-0.088,-0.193l-0.105,-0.211l-0.105,-0.193l-0.088,-0.21l-0.105,-0.211l-0.088,-0.21l-0.088,-0.211l-0.087,-0.21l-0.088,-0.211l-0.088,-0.228l-0.07,-0.228l-0.088,-0.21l-0.07,-0.228l-0.07,-0.228l-0.07,-0.228l-0.07,-0.246l-0.053,-0.228l-0.07,-0.245l-0.053,-0.228l-0.052,-0.246l-0.053,-0.246l-0.053,-0.245l-0.035,-0.246l-0.052,-0.245l-0.035,-0.263l-0.035,-0.246l-0.018,-0.246l-0.035,-0.263l-0.018,-0.263l-0.017,-0.245l-0.018,-0.263l-0.017,-0.264l-0.018,-0.263l0,-0.263l0,-0.263l0,-0.28l0,-0.264l0.018,-0.263l0.017,-0.263l0.018,-0.28l0.017,-0.264l0.035,-0.28l0.018,-0.263l0.035,-0.281l0.035,-0.281l0.053,-0.263l0.052,-0.28l0.035,-0.263l0.071,-0.281l0.052,-0.281l0.07,-0.263l0.053,-0.281l0.07,-0.28l0.088,-0.263l0.07,-0.281l0.088,-0.281l0.087,-0.263l0.106,-0.28l0.087,-0.281l0.106,-0.263l0.105,-0.281l0.105,-0.263l0.123,-0.263l0.123,-0.281l0.122,-0.263l0.123,-0.263l0.123,-0.263l0.14,-0.263l0.141,-0.263l0.14,-0.263l0.158,-0.263l0.158,-0.263l0.158,-0.264l0.157,-0.245l0.158,-0.263l0.176,-0.246l0.175,-0.245l0.176,-0.246l0.175,-0.245l0.193,-0.246l0.193,-0.246l0.193,-0.245l0.193,-0.228l0.21,-0.246l0.193,-0.228l0.211,-0.228l0.21,-0.228l0.228,-0.21l0.211,-0.228l0.228,-0.211l0.228,-0.228l0.228,-0.21l0.245,-0.211l0.228,-0.193l0.246,-0.21l0.245,-0.193l0.246,-0.211l0.263,-0.175l0.246,-0.193l0.263,-0.193l0.263,-0.175l0.263,-0.176l0.263,-0.175l0.281,-0.176l0.263,-0.175l0.281,-0.158l0.28,-0.158l0.281,-0.158l0.28,-0.14l0.299,-0.158l0.28,-0.14l0.298,-0.14l0.299,-0.123l0.28,-0.141l0.299,-0.122l0.315,-0.123l0.298,-0.123l0.299,-0.105l0.315,-0.105l0.299,-0.106l0.315,-0.105l0.316,-0.088l0.316,-0.087l0.315,-0.088l0.316,-0.088l0.316,-0.07l0.316,-0.07l0.315,-0.07l0.316,-0.053l0.333,-0.07l0.316,-0.053l0.333,-0.035l0.316,-0.052l0.333,-0.035l0.316,-0.035l0.333,-0.018l0.334,-0.035l0.315,-0.018l0.334,0l0.333,-0.017l0.316,0l0.333,0l0.333,0l0.316,0.017l0.333,0.018l0.333,0.017l0.316,0.036l0.333,0.017l0.334,0.035l0.315,0.053l0.334,0.035l0.315,0.052l0.316,0.053l0.333,0.07l0.316,0.053l0.316,0.07l0.316,0.088l0.315,0.07l0.316,0.088l0.316,0.087l0.316,0.088l0.315,0.105l0.316,0.106l0.298,0.105l0.298,0.105l0.316,0.123l0.298,0.105l0.298,0.123l0.299,0.14l0.298,0.123l0.28,0.14l0.299,0.141l0.28,0.14l0.299,0.158l0.28,0.158l0.281,0.157l0.28,0.158l0.264,0.158l0.28,0.176l0.263,0.175l0.263,0.175l0.264,0.176l0.263,0.193l0.263,0.175l0.245,0.193l0.246,0.193l0.245,0.211l0.246,0.192l0.246,0.211l0.228,0.21l0.245,0.211l0.228,0.21l0.228,0.211l0.211,0.228l0.228,0.21l0.21,0.228l0.211,0.228l0.21,0.229l0.193,0.245l0.211,0.228l0.193,0.246l0.193,0.228l0.192,0.245l0.176,0.246l0.175,0.245l0.176,0.246l0.175,0.263l0.175,0.246l0.158,0.263l0.158,0.245l0.158,0.263l0.14,0.264l0.158,0.263l0.141,0.263l0.14,0.263l0.123,0.263l0.14,0.263l0.123,0.263l0.123,0.281l0.105,0.263l0.123,0.263l0.105,0.281l0.105,0.263l0.088,0.28l0.105,0.281l0.088,0.263l0.087,0.281l0.071,0.263l0.087,0.281l0.07,0.28l0.071,0.263l0.07,0.281l0.052,0.281l0.053,0.263l0.053,0.28l0.052,0.281l0.053,0.263l0.035,0.281l0.035,0.28l0.035,0.264l0.018,0.28l0.035,0.263l0.017,0.281l0.018,0.263l0,0.263l0.017,0.281l0,0.263l0,0.263l0,0.263l-0.017,0.263l0,0.263l-0.018,0.263l-0.017,0.264l-0.035,0.245l-0.018,0.263l-0.035,0.246l-0.035,0.263l-0.035,0.245l-0.035,0.246l-0.035,0.263l-0.053,0.246l-0.053,0.228l-0.052,0.245l-0.053,0.246l-0.052,0.245l-0.071,0.228l-0.07,0.228l-0.052,0.246l-0.07,0.228l-0.088,0.228l-0.07,0.211l-0.071,0.228l-0.087,0.228l-0.088,0.21l-0.088,0.211l-0.087,0.228l-0.088,0.21l-0.105,0.193l-0.088,0.211l-0.105,0.21l-0.088,0.193l-0.105,0.193l-0.105,0.21l-0.106,0.193l-0.105,0.176l-0.123,0.193l-0.105,0.175l-0.123,0.193l-0.105,0.175l-0.123,0.176l-0.123,0.175l-0.105,0.176l-0.123,0.158l-0.122,0.175l-0.141,0.158l-0.122,0.158l-0.123,0.158l-0.123,0.157l-0.123,0.141l-0.14,0.158l-0.123,0.14l-0.14,0.14l-0.123,0.141l-0.14,0.14l-0.141,0.123l-0.122,0.14l-0.141,0.123l-0.14,0.123l-0.123,0.122l-0.14,0.123l-0.14,0.123l-0.141,0.105l-0.123,0.123l-0.14,0.105l-0.14,0.105l-0.141,0.106l-0.14,0.087l-0.123,0.106l-0.14,0.105l-0.14,0.088l-0.141,0.087l-0.14,0.088l-0.123,0.088l-0.14,0.087l-0.14,0.071l-0.123,0.087l-0.141,0.07l-0.14,0.088l-0.123,0.07l-0.14,0.07l-0.123,0.071l-0.14,0.052l-0.123,0.07l-0.123,0.053l-0.14,0.07l-0.123,0.053l-0.123,0.052l-0.122,0.053l-0.123,0.053l-0.123,0.052l-0.123,0.053l-0.122,0.035l-0.123,0.053l-0.123,0.035l-0.123,0.052l-0.105,0.035l-0.123,0.035l-0.123,0.036l-0.105,0.035l-0.105,0.035l-0.123,0.035l-0.105,0.035l-0.105,0.035l-0.106,0.017l-0.105,0.036l-0.105,0.035l-0.105,0.017l-0.106,0.035l-0.105,0.018l-0.087,0.017l-0.106,0.035l-0.087,0.018l-0.106,0.018l-0.087,0.017l-0.088,0.018l-0.088,0.017l-0.087,0.018l-0.088,0.035l-0.088,0.017l-0.088,0.018l-0.087,0l-0.088,0.017l-0.07,0.018l-0.088,0.017l-0.07,0.018l-0.088,0.018l-0.07,0.017l-0.07,0.018l-0.07,0.017l-0.07,0.018l-0.071,0.017l-0.07,0.018l-0.07,0.017l-0.07,0.018l-0.07,0.017l-0.053,0.018l-0.07,0.017l-0.07,0.018l-0.053,0.018l-0.07,0.017l-0.053,0.018l-0.052,0.017l-0.07,0.018l-0.053,0.035l-0.053,0.017l-0.052,0.018l-0.053,0.035l-0.052,0.018l-0.053,0.017l-0.053,0.035l-0.052,0.018l-0.053,0.035l-0.053,0.035l-0.052,0.017l-0.053,0.035l-0.035,0.036l-0.052,0.035l-0.053,0.017l-0.053,0.035l-0.035,0.035l-0.052,0.035l-0.053,0.053l-0.053,0.035l-0.035,0.035l-0.052,0.035l-0.053,0.053l-0.035,0.035l-0.053,0.053l-0.052,0.035l-0.035,0.052l-0.053,0.053l-0.053,0.035l-0.035,0.053l-0.052,0.052l-0.053,0.053l-0.053,0.052l-0.052,0.053l-0.053,0.053l-0.035,0.052l-0.053,0.071l-0.052,0.052l-0.053,0.053l-0.07,0.07l-0.053,0.053l-0.052,0.07l-0.053,0.07l-0.052,0.052l-0.071,0.071l-0.052,0.07l-0.07,0.07l-0.053,0.07l-0.07,0.07l-0.053,0.07l-0.07,0.071l-0.07,0.07l-0.07,0.07l-0.07,0.07l-0.071,0.07l-0.07,0.088l-0.07,0.07l-0.07,0.07l-0.088,0.088l-0.07,0.07l-0.088,0.088l-0.087,0.07l-0.07,0.088l-0.088,0.07l-0.088,0.088l-0.088,0.087l-0.105,0.07l-0.088,0.088l-0.087,0.07l-0.105,0.088l-0.088,0.088l-0.105,0.07l-0.106,0.088l-0.105,0.087l-0.105,0.07l-0.105,0.088l-0.123,0.088l-0.105,0.07l-0.123,0.088l-0.123,0.087l-0.105,0.071l-0.123,0.087l-0.123,0.07l-0.14,0.088l-0.123,0.07l-0.123,0.088l-0.14,0.07l-0.14,0.088l-0.141,0.07l-0.14,0.07l-0.14,0.088l-0.141,0.07l-0.14,0.07l-0.158,0.07l-0.158,0.071l-0.14,0.07l-0.158,0.07l-0.158,0.07l-0.158,0.053l-0.175,0.07l-0.158,0.07l-0.175,0.053l-0.158,0.052l-0.176,0.07l-0.175,0.053l-0.175,0.053l-0.176,0.052l-0.193,0.053l-0.175,0.052l-0.176,0.036l-0.192,0.052l-0.193,0.035l-0.193,0.053l-0.193,0.035l-0.193,0.035l-0.193,0.035l-0.193,0.035l-0.211,0.018l-0.193,0.035l-0.21,0.017l-0.211,0.018l-0.21,0.035l-0.193,0l-0.21,0.018l-0.228,0.017l-0.211,0l-0.21,0.018l-0.211,0l-0.228,0l-0.21,-0.018l-0.228,0l-0.229,-0.017l-0.228,0l-0.21,-0.018l-0.228,-0.018l-0.228,-0.035l-0.228,-0.017l-0.228,-0.035l-0.228,-0.035l-0.246,-0.035l-0.228,-0.035l-0.228,-0.036l-0.228,-0.052l-0.245,-0.053l-0.228,-0.052l-0.228,-0.053l-0.246,-0.07l-0.228,-0.053l-0.246,-0.07l-0.228,-0.07l-0.245,-0.088l-0.228,-0.07l-0.228,-0.088l-0.246,-0.087l-0.228,-0.088l-0.245,-0.088l-0.228,-0.105l-0.246,-0.105l-0.228,-0.106l-0.228,-0.105l-0.246,-0.123l-0.228,-0.105l-0.228,-0.123l-0.245,-0.122l-0.228,-0.141l-0.228,-0.123l-0.228,-0.14l-0.228,-0.14l-0.228,-0.14l-0.228,-0.158l-0.228,-0.141l-0.211,-0.158l-0.228,-0.157l-0.21,-0.176l-0.228,-0.158l-0.211,-0.175l-0.228,-0.175l-0.21,-0.176l-0.211,-0.193l-0.21,-0.175l-0.211,-0.193l-0.193,-0.193l-0.21,-0.211l-0.193,-0.193l-0.211,-0.21l-0.193,-0.211l-0.193,-0.21l-0.193,-0.21l-0.193,-0.211l-0.175,-0.228l-0.193,-0.228l-0.175,-0.228l-0.176,-0.228l-0.175,-0.246l-0.175,-0.228l-0.176,-0.245l-0.158,-0.246l-0.175,-0.245l-0.158,-0.246l-0.158,-0.263l-0.14,-0.263l-0.158,-0.246l-0.14,-0.263l-0.141,-0.28l-0.14,-0.264l-0.14,-0.263l-0.141,-0.28l-0.122,-0.281l-0.123,-0.281l-0.123,-0.28l-0.105,-0.281l-0.123,-0.281l-0.105,-0.298l-0.106,-0.28l-0.105,-0.299l-0.087,-0.298l-0.088,-0.298l-0.088,-0.298l-0.088,-0.298l-0.087,-0.299l-0.07,-0.298l-0.071,-0.315l-0.07,-0.299l-0.052,-0.315l-0.053,-0.316l-0.053,-0.298l-0.052,-0.316l-0.053,-0.316l-0.035,-0.315l-0.035,-0.316l-0.018,-0.316l-0.035,-0.316l-0.017,-0.315l-0.018,-0.334l0,-0.315l-0.017,-0.316l0,-0.316l0,-0.333l0.017,-0.316l0.018,-0.316l0.017,-0.333l0.018,-0.316l0.035,-0.315l0.017,-0.334l0.053,-0.315l0.035,-0.316l0.053,-0.333l0.052,-0.316l0.053,-0.316l0.053,-0.315l0.07,-0.334l0.07,-0.315l0.088,-0.316l0.07,-0.316l0.088,-0.316l0.087,-0.315l0.106,-0.299l0.087,-0.315l0.105,-0.316l0.106,-0.298l0.122,-0.316l0.123,-0.298l0.123,-0.316l0.123,-0.298l0.123,-0.298l0.14,-0.298l0.14,-0.299l0.158,-0.298l0.14,-0.28l0.158,-0.299l0.158,-0.28l0.158,-0.281l0.175,-0.281l0.158,-0.28l0.176,-0.281l0.193,-0.281l0.175,-0.263l0.193,-0.28l0.193,-0.263l0.193,-0.263l0.193,-0.264l0.21,-0.245l0.211,-0.263l0.21,-0.246l0.211,-0.245l0.21,-0.246l0.228,-0.246l0.228,-0.228l0.228,-0.245l0.228,-0.228l0.228,-0.228l0.246,-0.211l0.228,-0.228l0.246,-0.21l0.245,-0.211l0.263,-0.21l0.246,-0.211l0.263,-0.193l0.245,-0.193l0.264,-0.192l0.263,-0.193l0.263,-0.176l0.28,-0.175l0.264,-0.176l0.28,-0.175l0.263,-0.175l0.281,-0.158l0.281,-0.158l0.28,-0.158l0.281,-0.14l0.298,-0.141l0.281,-0.14l0.28,-0.14l0.299,-0.141l0.28,-0.122l0.298,-0.123l0.299,-0.105l0.298,-0.123l0.298,-0.105l0.298,-0.106l0.298,-0.105l0.299,-0.088l0.298,-0.087l0.298,-0.088l0.298,-0.088l0.298,-0.07l0.316,-0.07l0.298,-0.07l0.298,-0.053l0.316,-0.07l0.298,-0.053l0.298,-0.035l0.316,-0.052l0.298,-0.035l0.299,-0.036l0.298,-0.035l0.316,-0.017l0.298,-0.035l0.298,0l0.316,-0.018l0.298,-0.017l0.298,0l0.298,0l0.298,0.017l0.299,0l0.298,0.018l0.298,0.017l0.298,0.018l0.281,0.035l0.298,0.035l0.298,0.035l0.281,0.035l0.298,0.053l0.281,0.035l0.28,0.052l0.281,0.071l0.281,0.052l0.28,0.07l0.281,0.053l0.281,0.088l0.28,0.07l0.263,0.07l0.263,0.088l0.281,0.087l0.263,0.088l0.263,0.088l0.263,0.105l0.246,0.105l0.263,0.106l0.246,0.105l0.263,0.105l0.245,0.123l0.246,0.105l0.245,0.123l0.228,0.123l0.246,0.122l0.228,0.123l0.246,0.141l0.228,0.14l0.228,0.123l0.21,0.14l0.228,0.14l0.211,0.158l0.21,0.141l0.211,0.14l0.21,0.158l0.211,0.158l0.193,0.157l0.21,0.158l0.193,0.158l0.193,0.158l0.193,0.158l0.175,0.175l0.193,0.158l0.176,0.176l0.175,0.175l0.175,0.175l0.158,0.176l0.176,0.175l0.158,0.176l0.157,0.175l0.158,0.175l0.141,0.176l0.157,0.193l0.141,0.175l0.14,0.176l0.14,0.193l0.141,0.175l0.123,0.193l0.14,0.193l0.123,0.175l0.122,0.193l0.123,0.193l0.105,0.176l0.123,0.192l0.105,0.193l0.106,0.193l0.105,0.193l0.088,0.176l0.105,0.193l0.088,0.193l0.087,0.193l0.088,0.175l0.088,0.193l0.07,0.193l0.088,0.193l0.07,0.175l0.07,0.193l0.07,0.193l0.053,0.175l0.07,0.193l0.052,0.193l0.053,0.176l0.07,0.193l0.035,0.175l0.053,0.176l0.053,0.192l0.035,0.176l0.035,0.175l0.052,0.176l0.035,0.193l0.018,0.175l0.035,0.175l0.035,0.158l0.018,0.176l0.017,0.175l0.035,0.176l0.018,0.157l0.017,0.176l0,0.158l0.018,0.175l0.017,0.158l0,0.158l0,0.158l0.018,0.157l0,0.158l0,0.158l0,0.158l-0.018,0.158l0,0.14l0,0.158l-0.017,0.14l0,0.141l-0.018,0.158l0,0.14l-0.017,0.14l-0.018,0.123l-0.017,0.14l-0.018,0.141l-0.017,0.14l-0.018,0.123l-0.017,0.123l-0.018,0.14l-0.035,0.123l-0.018,0.123l-0.017,0.122l-0.035,0.123l-0.018,0.123l-0.017,0.105l-0.035,0.123l-0.018,0.105l-0.035,0.123l-0.018,0.105l-0.035,0.105l-0.035,0.106l-0.017,0.105l-0.035,0.105l-0.035,0.105l-0.018,0.088l-0.035,0.105l-0.035,0.106l-0.018,0.087l-0.035,0.088l-0.035,0.105l-0.017,0.088l-0.035,0.088l-0.018,0.087l-0.035,0.088l-0.035,0.07l-0.018,0.088l-0.035,0.088l-0.017,0.07l-0.035,0.087l-0.018,0.071l-0.035,0.087l-0.018,0.07l-0.017,0.071l-0.035,0.07l-0.018,0.07l-0.017,0.07l-0.035,0.07l-0.018,0.07l-0.017,0.071l-0.018,0.07l-0.017,0.07l-0.018,0.07l-0.018,0.053l-0.017,0.07l-0.018,0.052l-0.017,0.071l0,0.07l-0.018,0.052l-0.017,0.071l0,0.052l-0.018,0.053l0,0.07l-0.017,0.053l0,0.052l0,0.07l-0.018,0.053l0,0.053l0,0.07l0,0.052"/>
   <g id="svg_57" filter="url(#filter11_b_415_11747)">
    <rect id="svg_58" fill-opacity="0.1" fill="white" rx="14.0678" height="78.7797" width="78.7797" y="559.898" x="322.955"/>
    <rect id="svg_59" stroke-width="0.937853" stroke-opacity="0.2" stroke="white" rx="14.5367" height="79.7175" width="79.7175" y="559.43" x="322.486"/>
   </g>
   <path id="svg_60" fill="white" d="m336.09,568.339c-0.567,0 -0.99,0.462 -0.939,1.027l4.782,53.648c0.051,0.565 0.539,1.152 1.086,1.304l20.296,5.635c0.547,0.152 1.441,0.152 1.988,0l20.358,-5.644c0.547,-0.152 1.036,-0.738 1.086,-1.303l4.791,-53.64c0.051,-0.565 -0.373,-1.027 -0.94,-1.027l-52.508,0zm43.262,12.304c-0.045,0.504 -0.123,1.379 -0.174,1.944l-0.126,1.407c-0.05,0.565 -0.123,1.373 -0.161,1.796c-0.038,0.422 -0.074,0.768 -0.08,0.768c-0.007,0 -0.476,0 -1.044,0l-14.391,0c-0.568,0 -1.037,0 -1.043,0c-0.006,0 -0.475,0 -1.043,0l-7.579,0c-0.567,0 -0.99,0.462 -0.94,1.027l0.442,4.942c0.051,0.565 0.556,1.027 1.124,1.027l6.954,0c0.567,0 1.036,0 1.042,0c0.007,0 0.476,0 1.043,0l11.953,0c0.567,0 1.445,0 1.951,0c0.505,0 0.881,0.413 0.836,0.917c-0.046,0.504 -0.125,1.379 -0.175,1.944l-1.422,15.932c-0.051,0.565 -0.115,1.287 -0.143,1.604c-0.028,0.317 -0.498,0.701 -1.045,0.852l-11.993,3.326c-0.546,0.151 -1.001,0.277 -1.009,0.278c-0.009,0.002 -0.463,-0.12 -1.01,-0.272l-12.005,-3.331c-0.547,-0.152 -1.035,-0.739 -1.086,-1.304l-0.773,-8.674c-0.05,-0.565 0.373,-1.027 0.941,-1.027l1.095,0c0.568,0 1.496,0 2.063,0l1.634,0c0.567,0 1.073,0.462 1.123,1.027l0.303,3.396c0.051,0.565 0.54,1.148 1.088,1.296l5.616,1.517c0.547,0.148 0.997,0.269 1,0.269c0.002,0 0.452,-0.122 1,-0.27l5.626,-1.52c0.547,-0.148 1.037,-0.731 1.088,-1.296l0.61,-6.803c0.05,-0.565 -0.372,-1.027 -0.94,-1.027l-6.326,0c-0.567,0 -1.036,0 -1.043,0c-0.006,0 -0.475,0 -1.042,0l-13.201,0c-0.568,0 -1.073,-0.463 -1.123,-1.028l-1.497,-16.773c-0.051,-0.565 -0.129,-1.44 -0.174,-1.944c-0.045,-0.504 0.383,-0.917 0.95,-0.917l15.045,0c0.567,0 1.036,0 1.042,0c0.007,0 0.476,0 1.043,0l15.026,0c0.568,0 0.995,0.413 0.95,0.917z"/>
  </g>
 </g>
</svg>